<svg xmlns="http://www.w3.org/2000/svg" width="117.5" height="69.299" viewBox="0 0 117.5 69.299">
  <path id="AWS_logo_black" d="M68.019,76.3l-.851-.046-4.9-.207c-1.527-.1-3.043-.276-4.571-.448a83.957,83.957,0,0,1-12.395-2.4,85.842,85.842,0,0,1-18.983-7.644A81.116,81.116,0,0,1,15.163,58.23c-1.551-1.218-3.032-2.506-4.547-3.759a1.965,1.965,0,0,1-.385-.437.972.972,0,0,1-.012-1.149,1,1,0,0,1,1.166-.333,9.457,9.457,0,0,1,1.236.609A112.592,112.592,0,0,0,28.13,60.345a107.3,107.3,0,0,0,12.348,3.862q4.075,1,8.209,1.8c2.076.4,4.186.678,6.273.966,1.609.218,3.23.379,4.851.529a105.492,105.492,0,0,0,11.59.448q2.921-.052,5.842-.241c1.737-.1,3.463-.253,5.189-.471,2.157-.264,4.3-.563,6.436-.92a116.1,116.1,0,0,0,22.994-6.287l2.647-1.069a2.109,2.109,0,0,1,1.609-.034,1.5,1.5,0,0,1,.653,2.471,9.37,9.37,0,0,1-1.632,1.3,69.354,69.354,0,0,1-14.96,7.713A82.591,82.591,0,0,1,88.611,73.9c-2.309.506-4.629.931-6.961,1.31-1.842.3-3.708.54-5.574.69-2.239.184-4.478.23-6.728.345a2.521,2.521,0,0,0-.292.034C68.73,76.3,68.381,76.3,68.019,76.3ZM111.045,7.012l1.294.115A22.316,22.316,0,0,1,118.8,8.7a3.216,3.216,0,0,1,1.562,1.161,2.242,2.242,0,0,1,.35,1c.047.77.023,1.54.012,2.31a.9.9,0,0,1-1.283.943c-.595-.184-1.178-.448-1.761-.678a17.917,17.917,0,0,0-5.387-1.172,16.169,16.169,0,0,0-4.279.2,9.622,9.622,0,0,0-2.041.667,3.684,3.684,0,0,0-2.157,3.747,3.962,3.962,0,0,0,2.472,3.471,24.308,24.308,0,0,0,3.964,1.529l5.842,1.885a11.266,11.266,0,0,1,3.661,2.057,8.039,8.039,0,0,1,2.775,4.839,9.478,9.478,0,0,1-.956,6.379,10.6,10.6,0,0,1-5.364,4.747,17.328,17.328,0,0,1-5.632,1.356,25.813,25.813,0,0,1-11.264-1.724,9.469,9.469,0,0,1-1.562-.874,1.782,1.782,0,0,1-.781-1.529c-.023-.747-.012-1.506,0-2.253.012-.908.49-1.287,1.376-1.012.723.218,1.411.54,2.122.8a22.113,22.113,0,0,0,5.247,1.264,20.7,20.7,0,0,0,4.384.1,8.32,8.32,0,0,0,4.513-1.494,4.133,4.133,0,0,0-1.073-7.161,34.009,34.009,0,0,0-4.338-1.529c-1.7-.54-3.428-1.034-5.107-1.655a10.391,10.391,0,0,1-4.349-2.862,9.122,9.122,0,0,1-2.355-5.425,8.881,8.881,0,0,1,3.895-8.161,13.024,13.024,0,0,1,6.028-2.4c.63-.092,1.283-.126,1.912-.184.082-.011.152-.034.233-.046.513.011,1.049.011,1.586.011Zm-30.538,28.6.525-1.966,6.18-23.6A7.859,7.859,0,0,1,87.6,9.012a1.517,1.517,0,0,1,1.411-.943c.525-.046,1.049-.046,1.574-.046h2.5c.84.011,1.248.46,1.038,1.264-.326,1.253-.7,2.483-1.1,3.724l-8.675,27.4c-.082.241-.175.471-.268.713a1.685,1.685,0,0,1-1.644,1.08q-2.11.034-4.221,0a1.577,1.577,0,0,1-1.6-1.172c-.233-.747-.408-1.494-.595-2.253l-3.65-14.989-2.052-8.23c-.093.379-.2.747-.28,1.126L64.37,40.081a8.469,8.469,0,0,1-.385,1.161,1.423,1.423,0,0,1-1.364.92c-.8.034-1.6.046-2.4.046-.688,0-1.388-.011-2.076-.046a1.483,1.483,0,0,1-1.411-.943c-.3-.77-.571-1.552-.816-2.333L49.328,17.529l-2.3-7.506a4.129,4.129,0,0,1-.163-1.31c.012-.379.268-.575.653-.632a5.568,5.568,0,0,1,.618-.034h3.3a6.539,6.539,0,0,1,.828.046,1.349,1.349,0,0,1,1.224.885c.292.828.56,1.655.781,2.506L59.6,32.127c.268,1.069.548,2.126.875,3.2l.28-1.1,5.783-24.207c.058-.264.152-.517.233-.782A1.571,1.571,0,0,1,68.346,8.08c1.271-.034,2.554-.034,3.825-.046a4.522,4.522,0,0,1,.676.08,1.337,1.337,0,0,1,1.143.943c.233.713.42,1.46.606,2.2l5.76,24.058a3.048,3.048,0,0,0,.082.31A.208.208,0,0,1,80.507,35.609ZM36.63,23.058c0-1.3.047-2.621-.023-3.943a12.95,12.95,0,0,0-.408-2.494,5.123,5.123,0,0,0-4.128-3.862,16.5,16.5,0,0,0-5.037-.31,25.417,25.417,0,0,0-7.3,1.851,12.237,12.237,0,0,1-1.434.46c-.571.149-1.014-.092-1.049-.667-.058-1.034-.023-2.069,0-3.1a1.342,1.342,0,0,1,.723-1.08,14.551,14.551,0,0,1,3.09-1.379,25.92,25.92,0,0,1,5.515-1.264,28.043,28.043,0,0,1,4.909-.092,17.688,17.688,0,0,1,4.443.8,9.508,9.508,0,0,1,6.611,7.1,17.6,17.6,0,0,1,.536,4.345V31.46a13.133,13.133,0,0,0,1.737,6.9,1.37,1.37,0,0,1-.525,2.1L41.9,42.035a1.642,1.642,0,0,1-2.32-.333,15.39,15.39,0,0,1-2.32-3.621c-.047-.092-.093-.2-.2-.379a.89.89,0,0,1-.14.241,14.512,14.512,0,0,1-7.148,4.586,15.714,15.714,0,0,1-5.9.448,10.4,10.4,0,0,1-5.154-1.9,9.043,9.043,0,0,1-3.556-5.529,11.621,11.621,0,0,1,.338-6.4,10.036,10.036,0,0,1,5.026-5.563A14.058,14.058,0,0,1,25.576,22.1a23.717,23.717,0,0,1,6.122.126l4.932.828Zm.117,5.908V27.7c.012-.207-.058-.276-.268-.333a30.939,30.939,0,0,0-7.043-.816,12.446,12.446,0,0,0-3.743.483A5.184,5.184,0,0,0,22,30.54a7.651,7.651,0,0,0-.14,3.448,4.632,4.632,0,0,0,3.778,3.885,9.607,9.607,0,0,0,3.533-.011,10.169,10.169,0,0,0,3.976-1.414,7.064,7.064,0,0,0,3.113-3.77,12.044,12.044,0,0,0,.49-3.713Zm78.928,25.7L110.626,55c-1.341.115-2.67.3-4,.437-.373.046-.793.057-1-.333a.793.793,0,0,1,.245-1,7.692,7.692,0,0,1,1.154-.862,20.359,20.359,0,0,1,6.681-2.483,29.439,29.439,0,0,1,6.961-.517,17.807,17.807,0,0,1,5.259.874,2.122,2.122,0,0,0,.245.092,1.886,1.886,0,0,1,1.329,1.885,18.949,18.949,0,0,1-.851,6.563,25.73,25.73,0,0,1-4.058,8.529,16.4,16.4,0,0,1-2.787,2.954,1.568,1.568,0,0,1-1.014.437.585.585,0,0,1-.653-.7,3.167,3.167,0,0,1,.233-.782,74.254,74.254,0,0,0,2.763-7.609,37.111,37.111,0,0,0,.851-3.747,7.1,7.1,0,0,0,.012-1.862,1.732,1.732,0,0,0-1.376-1.575,12.641,12.641,0,0,0-2.157-.46c-.875-.115-1.784-.126-2.787-.172Z" transform="translate(-10.037 -7)"/>
</svg>
