<svg id="CSS3_logo_and_wordmark" xmlns="http://www.w3.org/2000/svg" width="83.3" height="117.579" viewBox="0 0 83.3 117.579">
  <path id="Tracé_6" data-name="Tracé 6" d="M83.3,100.62l-7.589,85.015L41.6,195.092,7.581,185.648,0,100.62Z" transform="translate(0 -77.513)" fill="#264de4"/>
  <path id="Tracé_7" data-name="Tracé 7" d="M208.931,203.543l6.485-72.649h-34.05v80.291Z" transform="translate(-139.717 -100.835)" fill="#2965f1"/>
  <path id="Tracé_8" data-name="Tracé 8" d="M69.377,197.412l.935,10.428H93.648V197.412ZM93.648,176.3H67.5l.948,10.428h25.2Zm0,59.04V224.5l-.046.012-11.614-3.136-.742-8.317H70.778l1.461,16.374,21.362,5.93Z" transform="translate(-51.998 -135.817)" fill="#ebebeb"/>
  <path id="Tracé_9" data-name="Tracé 9" d="M85.367,0H98V5.282H90.649v5.282H98v5.282H85.367Zm15.157,0h12.631V4.593h-7.349v.919h7.349V16.075H100.524V11.253h7.349v-.919h-7.349ZM115.68,0h12.63V4.593h-7.349v.919h7.349V16.075H115.68V11.253h7.349v-.919H115.68Z" transform="translate(-65.763)"/>
  <path id="Tracé_10" data-name="Tracé 10" d="M194.051,207.84l-1.21,13.525L181.21,224.5v10.849l21.379-5.925,4.744-53.124H181.21v10.428H195.9l-.949,10.679H181.21V207.84Z" transform="translate(-139.596 -135.817)" fill="#fff"/>
</svg>
