<svg xmlns="http://www.w3.org/2000/svg" width="147.214" height="55" viewBox="0 0 147.214 55">
  <g id="Go_Logo_Aqua" transform="translate(0 0.034)">
    <path id="Tracé_11" data-name="Tracé 11" d="M11.11,16.619c-.287,0-.358-.143-.215-.358L12.4,14.325a1.027,1.027,0,0,1,.788-.358H38.777c.287,0,.358.215.215.43l-1.218,1.864a1.092,1.092,0,0,1-.717.43L11.11,16.619ZM.287,23.213c-.287,0-.358-.143-.215-.358L1.577,20.92a1.027,1.027,0,0,1,.788-.358H35.05a.329.329,0,0,1,.358.43l-.573,1.72a.627.627,0,0,1-.645.43l-33.9.072Zm17.346,6.594c-.287,0-.358-.215-.215-.43l1-1.792a.951.951,0,0,1,.717-.43H33.473c.287,0,.43.215.43.5l-.143,1.72a.539.539,0,0,1-.5.5l-15.625-.072Zm74.4-14.479L79.99,18.483c-1.075.287-1.147.358-2.079-.717a9.594,9.594,0,0,0-3.369-2.724c-4.516-2.222-8.888-1.577-12.973,1.075a15.243,15.243,0,0,0-7.311,13.618,11.236,11.236,0,0,0,9.676,11.253A13.229,13.229,0,0,0,76.12,36.258c.645-.788,1.218-1.649,1.935-2.652H64.222c-1.505,0-1.864-.932-1.362-2.15.932-2.222,2.652-5.949,3.655-7.813A1.935,1.935,0,0,1,68.307,22.5H94.4c-.143,1.935-.143,3.87-.43,5.806A30.568,30.568,0,0,1,88.09,42.351,29.858,29.858,0,0,1,67.662,54.536a25.389,25.389,0,0,1-19.281-4.731,22.514,22.514,0,0,1-9.1-15.912c-.932-7.813,1.362-14.837,6.092-21A31.807,31.807,0,0,1,65.44.492C72.178-.726,78.628.062,84.434,4A22.468,22.468,0,0,1,92.749,14.11C93.179,14.756,92.892,15.114,92.032,15.329Z" transform="translate(0 0)" fill="#2dbcaf"/>
    <path id="Tracé_12" data-name="Tracé 12" d="M151.387,55.228A26.888,26.888,0,0,1,133.9,48.92a22.479,22.479,0,0,1-7.741-13.833c-1.29-8.1.932-15.267,5.806-21.646C137.2,6.56,143.5,2.976,152.032,1.471,159.343.181,166.224.9,172.46,5.127A22.311,22.311,0,0,1,182.566,21.11c1.218,9.676-1.577,17.561-8.243,24.3a32.844,32.844,0,0,1-17.2,9.175c-1.935.358-3.87.43-5.734.645Zm17.059-28.957a20.63,20.63,0,0,0-.215-2.365,11.807,11.807,0,0,0-14.622-9.533c-6.666,1.505-10.966,5.734-12.543,12.472a11.8,11.8,0,0,0,6.594,13.547,13.14,13.14,0,0,0,11.683-.43c5.662-2.939,8.744-7.526,9.1-13.69Z" transform="translate(-35.631 -0.262)" fill="#2dbcaf"/>
  </g>
</svg>
