<svg xmlns="http://www.w3.org/2000/svg" width="83.3" height="117.557" viewBox="0 0 83.3 117.557">
  <g id="HTML5_logo_and_wordmark" transform="translate(-74.6)">
    <path id="Tracé_1" data-name="Tracé 1" d="M108.4,0h5.378V4.81h4.957V0h5.378V14.557h-5.378V9.7h-4.91v4.852H108.4m22.821-9.7h-4.746V0h14.894V4.852H136.6v9.7h-5.378M143.73,0h5.635l3.46,5.126L156.286,0h5.635V14.557h-5.378V7.342l-3.764,5.232-3.764-5.232v7.215H143.73M164.586,0h5.378V9.747h7.622v4.81h-13" transform="translate(-26.669)"/>
    <path id="Tracé_2" data-name="Tracé 2" d="M82.177,187.333,74.6,100.6h83.3l-7.577,86.686-34.142,9.647" transform="translate(0 -79.377)" fill="#e44d26"/>
    <path id="Tracé_3" data-name="Tracé 3" d="M256,204.733V131h31.286l-5.97,66.665" transform="translate(-136.369 -93.821)" fill="#f16529"/>
    <path id="Tracé_4" data-name="Tracé 4" d="M142,176.3h24.05v9.578H152.506l.886,9.81H166.05v9.557H144.616m.422,4.81h9.62l.675,7.658,10.717,2.869v10L146.388,225.1" transform="translate(-51.349 -132.502)" fill="#ebebeb"/>
    <path id="Tracé_5" data-name="Tracé 5" d="M279.808,176.3H255.8v9.578h23.122m-.865,9.81H255.8v9.578h11.814L266.5,217.713l-10.7,2.869v9.958l19.62-5.443" transform="translate(-138.053 -132.507)" fill="#fff"/>
  </g>
</svg>
