<svg xmlns="http://www.w3.org/2000/svg" width="160.437" height="41.894" viewBox="0 0 160.437 41.894">
  <g id="Logo_of_Hugo_the_static_website_generator" transform="translate(-3.8 -10.99)">
    <path id="Tracé_13" data-name="Tracé 13" d="M51.615,52.411V39.265a4.822,4.822,0,0,0-2.379-4.157L37.062,27.955a5.659,5.659,0,0,0-5.837.062L20.419,34.68a6.229,6.229,0,0,0-2.96,5.3v13.46a6.033,6.033,0,0,0,2.988,5.208l11.261,6.582a4.9,4.9,0,0,0,4.86.051L49.035,58.34a5.023,5.023,0,0,0,2.577-4.387V52.411Z" transform="translate(-12.19 -14.445)" fill="#ff4088" fill-rule="evenodd"/>
    <path id="Tracé_14" data-name="Tracé 14" d="M22.02,13.676h.414l.027,0h0l.026,0h0l.026,0h0l.027,0h0l.026,0h0l.027,0h0l.027,0h0l.027,0h0l.026,0h0l.026,0h0l.027,0h0l.027,0h0l.027,0h0l.026,0h0l.026,0h0l.027,0h0l.027,0h0l.026,0h0l.027,0h0l.026,0h0l.027,0h0l.026,0h0l.027,0h0l.026,0h0l.026,0h0l.027,0h0l.026,0h0l.026,0h0l.026.005h0l.026,0h0l.026.005h0l.027.005h0l.026.005h0l.026.005h0l.027.005h0l.027.005h0l.026.006h0l.026.006h0l.027.006h0l.026.005h0l.026.005h0l.026.006h0l.026.006h0l.026.006h0l.027.006h0l.026.006h0l.026.006h0l.026.008h0l.027.006h0l.026.006h0l.026.008h0l.026.008h0l.026.008h0l.026.008h0l.026.008h0l.026.008h0l.026.008.029.01h0l.026.009h0l.026.009h0l.084.028h0l.055.018h0l.026.009h0l.025.009h0l.025.009h0l.025.01h0l.026.01h0l.025.01h0l.026.009h0l.026.01h0l.026.01h0l.025.01h0l.025.011h0l.026.01h0l.025.011h0l.026.011h0l.026.011h0l.026.011h0l.025.011h0l.025.011h0l.026.011h0l.025.011h0l.025.011h0l.025.011h0l.025.012h0l.025.012h0l.025.012h0l.025.012h0l.025.012h0l.025.012h0l.025.012h0l.025.012h0l.025.013,0,0,.025.012h0l.024.013h0l.025.012h0l.025.013h0l.024.013,0,0,.025.013h0l.025.013h0l.024.013,0,0,.025.013,0,0,.024.014,0,0,.024.014h0l.024.014h0l.024.014,0,0,.024.014,0,0,.023.014h0l12.337,7.253.019.012h0l.019.013h0l.019.013h0l.019.012h0l.019.013,0,0,.019.013,0,0,.018.012h0l.019.013h0l.019.013h0l.018.013h0l.018.013h0l.018.013,0,0,.018.013h0l.018.014,0,0,.018.013h0l.018.013h0l.018.013,0,0,.018.013h0l.018.013,0,0,.018.013,0,0,.018.014,0,0,.017.014,0,0,.018.014h0l.018.014,0,0,.018.014,0,0,.017.014,0,0,.018.015,0,0,.034.028,0,0,.034.029,0,0,.035.029,0,0,.035.029,0,0,.034.029,0,0,.034.029,0,0,.033.03,0,0,.033.03,0,0,.033.031,0,0,.032.03,0,0,.033.031,0,0,.032.031,0,0,.032.031.04.04.031.032,0,0,.031.032,0,0,.031.032,0,0,.03.032,0,0,.03.032,0,0,.03.032,0,0,.03.033,0,0,.029.034,0,0,.03.033,0,0,.029.034,0,0,.029.034,0,0,.029.034,0,0,.028.034,0,0,.028.034,0,0,.028.035,0,0,.027.035,0,0,.027.035,0,0,.027.035,0,.005.027.037,0,0,.027.035,0,.005.026.037,0,0,.026.037,0,0,.026.037,0,.005.025.037,0,.005.025.038,0,.005.024.037,0,0,.024.037,0,0,.025.038,0,0,.024.038.029.048.024.038.029.048.023.039,0,0,.022.039,0,.005.022.039,0,.005.022.039,0,.005.022.039,0,.005.022.04,0,.005.02.04,0,.005.02.04,0,0,.019.041,0,.005.02.04,0,.005.019.04,0,.005.018.041,0,.005.018.041,0,.005.018.041,0,.005.018.041,0,.005.017.041,0,.005.017.041,0,.005.016.042,0,.005.016.041,0,.005.016.042,0,.005.016.042,0,.005.016.042,0,.005.015.042,0,.005.014.042,0,.005.014.042,0,.005.014.042,0,.005.014.043v.005l.013.042,0,.005.013.043v.005l.013.043,0,.005.013.043,0,.005.012.043,0,.005.012.043v.005l.011.043,0,.006.012.044v.005l.011.044,0,.005.01.044,0,.005.011.044v.006l.01.044v.005l.01.044v.005l.029.148.008.045v.005l.009.051.009.052.006.045v.006l.006.044v0l0,.024v0l0,.023v0l0,.023v0l0,.023v0l0,.023v0l0,.023v0l0,.023v0l0,.023v0l0,.023v0l0,.023v0l0,.023v0l0,.023v0l0,.023v0l0,.023v0l0,.023v0l0,.023v.056l0,.024V27l-.01,15.255v.054l0,.025v0l0,.025v0l0,.024v.03l0,.024v0l0,.024v0l0,.024v0l0,.024v0l0,.025v0l0,.024v0l0,.024v0l0,.024v0l0,.024v0l0,.024v0l0,.024v0l0,.025v0l0,.024v0l0,.024v0l0,.024v0l0,.024v0l0,.024v0l0,.024v0l0,.024v0l0,.024v0l0,.024v0l0,.024v0l0,.024v0l0,.024v0l0,.024v0l0,.023v0l0,.023v0l0,.024v0l-.005.024v0l-.005.024v0l0,.023v0l-.005.024v0l0,.024v0l-.005.023v0l-.005.023v0l-.005.023v0l-.005.023v0l-.005.023v0l-.005.023v0l-.005.023v0l-.006.023v0l-.005.023v0l-.006.023v0l-.006.024v0l-.006.023v0l-.006.023v0l-.006.023v0l-.006.024v0L40.6,43.7v0l-.006.023-.01.029-.006.023v0l-.006.023v0l-.006.023v0l-.042.126v0l-.025.074v0l-.017.052-.009.022v0l-.008.022v0l-.008.022-.01.029-.009.023v0l-.009.022v0l-.009.022v0l-.009.022v0l-.009.022v0l-.009.022v0l-.009.022v0l-.01.022v0l-.01.023v0l-.009.022v0l-.01.022v0l-.01.022v0l-.01.022v0l-.01.022v0l-.01.022v0l-.01.022v0l-.01.022v0l-.01.022-.013.026-.011.02v0l-.01.022v0l-.011.02v0l-.01.022-.012.024v0l-.012.024-.011.02-.012.024v0l-.011.022v0l-.011.022,0,0-.011.02-.012.024v0l-.011.022v0l-.012.02,0,0L40.06,45v0l-.012.02v0l-.012.02v0l-.012.02v0l-.012.02v0l-.012.02v0l-.012.02v0l-.012.02,0,0-.012.02,0,0-.012.02v0l-.012.02v0l-.013.02v0l-.012.019v0l-.012.019,0,0-.013.02v0l-.013.019,0,0-.013.019v0l-.013.02-.015.023,0,0-.013.019v0l-.013.02v0l-.013.019,0,0-.014.019v0l-.013.019v0l-.014.019v0l-.013.019,0,0-.013.019,0,0-.014.019,0,0-.013.019v0l-.014.019-.015.023,0,0-.014.019,0,0-.014.019,0,0-.014.019,0,0-.014.019v0l-.014.018,0,0-.014.018v0l-.015.018,0,0-.014.018v0l-.014.019,0,0-.015.019,0,0-.015.018,0,0-.015.018v0l-.015.018,0,0-.015.018,0,0-.015.018,0,0-.015.018,0,0-.015.018v0l-.015.018,0,0-.016.018,0,0-.015.018,0,0-.015.018,0,0-.015.018,0,0-.015.018,0,0-.015.017,0,0-.016.018,0,0-.015.018,0,0-.016.018,0,0-.015.018,0,0-.016.017,0,0-.016.017,0,0-.016.017,0,0-.016.017,0,0-.016.017,0,0-.016.017,0,0-.016.017,0,0-.016.017L39,46.426l-.016.017-.038.038,0,0-.019.019-.017.016-.022.022-.017.016,0,0-.017.016,0,0-.017.016,0,0-.017.016,0,0-.017.016,0,0-.017.016,0,0-.018.016h0l-.017.016,0,0-.018.016,0,0-.018.016h0l-.018.016,0,0-.018.015,0,0-.018.015,0,0-.018.016,0,0-.018.016,0,0-.018.016,0,0-.018.015,0,0-.019.015h0l-.018.015,0,0-.018.015,0,0-.018.015,0,0-.018.015,0,0-.018.015,0,0-.019.015,0,0-.018.014,0,0L38.357,47l0,0-.019.015,0,0-.019.015,0,0-.019.015h0l-.019.014h0l-.019.014h0l-.019.014h0l-.019.014,0,0-.019.014,0,0-.019.014,0,0-.019.014,0,0-.019.014h0l-.02.014h0l-.02.014,0,0-.02.014,0,0-.02.013,0,0-.02.014,0,0-.019.014,0,0-.02.013h0l-.02.013h0l-.02.013,0,0-.02.013,0,0-.02.013h0l-.02.013h0l-.02.013,0,0-.02.013h0l-.02.013,0,0-.02.013,0,0-.022.013,0,0-.02.012h0l-.02.012,0,0-.022.013,0,0-.022.012,0,0-.02.012h0l-.022.012h0l-.022.012h0l-.02.012h0L24.93,54.556l-.02.011h0l-.02.011h0l-.02.011h0l-.02.01-.024.012,0,0-.02.011h0l-.02.01h0l-.02.01h0l-.02.011h0l-.022.01h0l-.02.01h0l-.022.01h0l-.02.01h0l-.02.01,0,0-.022.01h0l-.022.009h0l-.022.01,0,0-.022.01h0l-.02.009h0l-.022.01h0l-.022.009h0l-.022.009h0l-.022.009h0l-.022.009h0l-.022.009h0l-.02.009h0l-.022.008h0l-.022.009h0l-.022.009h0l-.022.009h0l-.022.008h0l-.022.009h0l-.022.008h0l-.022.008h0l-.022.008h0l-.022.008h0l-.022.008h0l-.043.015h0l-.023.006h0l-.022.006h0l-.022.008h0l-.023.006h0l-.022.006h0L23.862,55l-.026.009h0l-.043.013-.005,0-.044.013h-.005l-.044.013h-.005l-.044.012-.005,0-.044.012h-.005l-.044.012h-.006l-.044.011h-.005l-.044.011h-.006l-.044.011h-.005l-.044.01h-.005l-.045.01h-.006l-.045.01h-.005l-.045.009h-.005l-.044.008h-.005l-.044.009h-.005l-.045.008h-.005l-.045.008h-.005l-.045.006h-.005l-.045.006h-.005l-.045.006h-.005l-.045.006H22.78l-.045.005h-.005l-.045.005h-.005l-.045.005-.045,0h-.005l-.045,0h-.005l-.045,0h-.005l-.045,0h-.005l-.045,0H22.38l-.045,0h-.005l-.045,0h-.005l-.045,0h-.312l-.09,0h-.053l-.045,0h-.005l-.045,0h-.005l-.045,0h-.005l-.045,0h-.005l-.045,0h-.005l-.045,0h-.006l-.045,0h-.006l-.045,0h-.005l-.045,0h-.005l-.045,0h-.005l-.045-.005H21.22l-.045-.005h-.006l-.045-.006h-.005l-.045-.006h-.005l-.045-.006h-.005l-.045-.006h-.005l-.044-.008h0l-.045-.009h-.006l-.044-.009h-.005l-.044-.009h-.005l-.044-.009h-.006l-.045-.009h-.005l-.044-.01-.006,0-.044-.01h-.005l-.044-.011-.006,0-.044-.011-.005,0-.044-.012h-.005l-.044-.012-.005,0-.044-.012-.005,0-.044-.012-.005,0-.044-.013-.006,0-.044-.013-.005,0-.044-.013-.005,0-.044-.013h-.005l-.043-.014h0L20,54.954h0l-.022-.006h0l-.022-.008h0l-.022-.008h0l-.022-.008h0l-.022-.008h0l-.022-.008h0L19.83,54.9h0l-.022-.008h0l-.022-.009h0l-.022-.009h0l-.022-.009h0l-.022-.009h0l-.022-.009h0l-.022-.009h0l-.022-.009h0l-.022-.009h0L19.59,54.8h0l-.022-.009h0l-.022-.009h0l-.022-.009h0l-.022-.009h0l-.022-.01h0l-.02-.01h0l-.022-.01h0l-.022-.01h0l-.022-.009h0l-.02-.01h0l-.022-.01h0l-.02-.01,0,0-.02-.01h0l-.02-.01h0l-.022-.01,0,0-.022-.011,0,0-.02-.01h0l-.022-.01,0,0-.02-.011h0l-.024-.012-.02-.011h0l-.02-.011h0l-.02-.011,0,0-.02-.011h0L19,54.523h0l-.02-.011,0,0-.02-.011h0l-.02-.012,0,0-.02-.011h0l-.02-.011h0l-.02-.011h0l-.02-.012h0l-.019-.012h0l-.019-.012h0L7.262,47.67l-.024-.015,0,0-.024-.015,0,0-.024-.015,0,0L7.159,47.6l0,0-.024-.016,0,0-.024-.015,0,0-.024-.016,0,0-.024-.016,0,0-.023-.016,0,0L7,47.493l0,0-.023-.016,0,0-.023-.016,0,0-.023-.016h0L6.9,47.421l0,0L6.879,47.4l0,0-.022-.016h0l-.023-.016,0,0L6.8,47.348l0,0L6.78,47.33l0,0-.023-.017,0,0-.022-.017,0,0-.022-.017h0l-.022-.017,0,0-.022-.017,0,0-.022-.017,0,0L6.612,47.2l0,0-.022-.017,0,0-.022-.017,0,0-.022-.018h0l-.022-.017,0,0L6.494,47.1l0,0-.022-.018,0,0-.022-.017,0,0-.022-.018h0L6.4,47.02l0,0L6.377,47l0,0-.02-.018,0,0-.02-.018,0,0-.02-.018,0,0-.02-.018,0,0-.02-.018,0,0-.02-.019h0l-.02-.018,0,0-.02-.019,0,0-.02-.018,0,0-.02-.019-.045-.045-.02-.019,0,0-.02-.019h0l-.129-.129-.018-.019-.024-.024-.019-.02,0,0-.018-.02,0,0-.018-.02,0,0-.019-.02,0,0-.018-.02,0,0-.018-.02,0,0-.018-.02,0,0-.018-.02,0,0-.018-.02v0l-.017-.02,0,0-.018-.02,0,0-.019-.022,0,0-.018-.02,0,0-.018-.022,0,0-.017-.02v0l-.017-.02,0,0-.017-.022,0,0-.018-.022,0,0-.017-.02,0,0-.018-.02,0,0-.017-.02,0,0-.017-.022,0,0-.017-.022,0,0-.017-.022,0,0-.017-.021,0,0-.017-.022v0l-.016-.022,0,0-.016-.022v0l-.016-.022,0,0L5.3,45.845l0,0-.016-.022,0,0L5.264,45.8v0l-.016-.023v0l-.016-.023v0l-.016-.022v0L5.2,45.7l0,0-.016-.023,0,0-.016-.023-.017-.026,0,0L5.125,45.6l0,0-.015-.023,0,0-.015-.023v0L5.057,45.5l0,0-.015-.023,0,0-.015-.023,0,0-.015-.023,0,0L4.989,45.4v0l-.014-.023-.034-.052v0L4.924,45.3v0l-.014-.023,0,0-.014-.023,0,0-.014-.024,0,0L4.86,45.2v0l-.014-.024v0l-.014-.023,0,0-.014-.024,0,0L4.8,45.093l0,0-.013-.024,0,0-.014-.024v0l-.013-.024v0l-.013-.024v0l-.013-.024,0,0-.013-.024v0L4.7,44.907v0l-.013-.024v0l-.013-.024v0l-.013-.024v0L4.641,44.8v0l-.013-.025v0l-.013-.025,0,0L4.6,44.718l-.013-.026v0l-.012-.025h0l-.012-.025,0,0-.012-.025v0l-.012-.024v0l-.012-.025v0l-.012-.025v0L4.5,44.5v0l-.012-.025v0l-.012-.025v0l-.012-.025v0L4.446,44.4v0l-.012-.025v0l-.012-.025v0l-.011-.025v0L4.4,44.287v0l-.011-.025v0l-.01-.025v0l-.011-.025v0l-.01-.026v0l-.011-.025v0l-.01-.024v0l-.011-.026v0l-.01-.026v0l-.01-.026v0l-.01-.026v0l-.01-.026v0l-.01-.026v0l-.01-.029-.01-.026v0l-.019-.058-.01-.026-.01-.029v0l-.009-.026v0l-.047-.142v0l-.008-.026v0l-.009-.027v0l-.008-.027v0L4.11,43.49v0L4.1,43.461v0l-.008-.027v0L4.084,43.4v0l-.008-.027h0l-.008-.027v0l-.006-.026v0l-.006-.026v0l-.008-.027v0l-.006-.026v0L4.03,43.2v0l-.006-.027h0l-.006-.027v0l-.006-.027v0L4,43.086v0l-.006-.027H4l-.006-.027v0L3.982,43v0l-.005-.027v0l-.006-.027v0l-.005-.027v0l-.005-.027v0l-.011-.054v0l-.005-.028v0l-.005-.027v0l-.006-.026v0L3.919,42.7v0l-.005-.028v0l0-.027v0l0-.027v0l0-.027v0l0-.027v0l0-.027h0l0-.027v0l0-.027v0l0-.027v0l0-.027v0l0-.028v0l0-.027v0l0-.028v0l0-.027v0l0-.028v0l0-.028v0l0-.028v0l0-.028v0l0-.028v0l0-.028,0-.028v0l0-.028v0l0-.028v0l0-.028v0l0-.028v0l0-.028v0l0-.056v0l0-.028v0l0-.028v-.245l0-13.832v-.155l0-.029v0l0-.028v-.033l0-.028v-.066l0-.028v0l0-.028v0l0-.028v0l0-.028v0l0-.028v0l0-.028v0l0-.028v0l0-.028v0l0-.028v0l0-.028v0l0-.028v0l0-.028v0l0-.027v0l0-.028v0l0-.028v0l0-.027v0l0-.028v0l0-.028v0l0-.027v0l0-.028v0l0-.028v0l0-.028v0l0-.027v0l0-.027v0l.008-.028v0l0-.027v0l.005-.027v0l.005-.027v0l.005-.028v0l.005-.027v0l.005-.027v0l.005-.027v0l.005-.027v0l.005-.027v0l.005-.027v0l.005-.027v0l.006-.027v0l.006-.027v0L4,26.195v0l.006-.027v0l.006-.027v0L4.02,26.1v0l.006-.027v0l.006-.027v0l.006-.027v0l.008-.027v0l.008-.027v0l.008-.027v0l.008-.027v0l.008-.027v0l.008-.026v0L4.1,25.81v0l.008-.027v0l.008-.026v0l.009-.027v0l.008-.026v0l.008-.026v0l.008-.027v0l.009-.026.01-.029v0l.009-.026v0l.009-.026v0l.038-.113v0l.01-.026v0l.009-.026v0l.009-.026v0l.01-.026v0l.01-.026v0l.01-.026v0l.01-.026v0l.01-.026v0l.01-.026v0l.011-.025v0l.011-.026v0l.011-.026v0l.011-.026v0l.011-.026v0l.011-.026v0l.011-.026v0l.011-.026v0l.011-.025v0l.011-.025v0l.011-.026v0l.012-.026v0l.012-.025v0l.011-.025v0L4.5,24.73v0l.012-.025v0l.012-.025v0l.012-.025v0l.012-.025v0l.012-.025v0l.012-.025v0l.012-.025v0l.012-.025v0l.012-.025v0l.013-.024v0l.013-.025,0,0,.013-.025v0l.013-.025v0l.013-.024v0l.013-.024v0l.013-.024v0l.013-.024,0,0,.013-.024v0l.013-.024,0,0,.013-.024v0l.013-.024,0,0,.014-.024v0l.013-.024v0l.014-.024v0l.014-.024v0l.014-.024,0,0,.014-.024v0l.014-.024,0,0,.014-.024v0l.014-.024,0,0,.014-.024v0l.015-.024,0,0,.015-.024v0l.014-.023,0,0,.015-.023,0,0,.014-.024v0l.015-.023v0l.015-.023,0,0,.015-.024,0,0,.015-.023v0l.015-.023v0l.015-.023v0l.016-.023,0,0,.015-.023,0,0,.016-.023v0l.016-.023v0l.016-.023v0l.016-.023,0,0,.016-.023v0l.016-.023,0,0,.016-.022v0l.016-.023,0,0,.016-.022,0,0,.016-.022,0,0,.016-.022,0,0,.016-.022v0l.016-.022,0,0,.017-.022,0,0,.017-.022,0,0,.017-.022,0,0,.017-.022,0,0,.017-.022,0,0,.017-.022v0l.017-.022,0,0,.017-.022,0,0,.017-.02,0,0,.017-.022,0,0,.017-.022,0,0,.018-.02,0,0,.017-.022,0,0,.017-.02,0,0,.017-.022,0,0L5.7,22.89v0l.018-.02,0,0,.018-.02,0,0,.018-.02,0,0,.018-.02v0l.018-.02,0,0,.018-.02,0,0,.018-.02v0l.018-.02,0,0,.019-.02v0l.019-.02,0,0,.02-.019,0,0,.019-.02,0,0,.019-.02.067-.067.02-.019.153-.153.02-.018,0,0,.02-.018,0,0,.02-.019,0,0,.02-.019h0l.02-.018h0l.02-.018,0,0,.02-.018,0,0,.02-.018,0,0,.02-.018h0l.022-.018,0,0,.022-.018,0,0,.022-.018,0,0L6.5,22.1l0,0,.022-.017,0,0,.02-.017,0,0,.022-.017,0,0,.022-.017h0L6.618,22l0,0,.022-.017,0,0,.022-.017,0,0,.023-.017,0,0,.022-.017,0,0,.023-.017,0,0,.023-.017,0,0,.022-.017h0l.023-.017,0,0,.022-.017,0,0,.023-.016,0,0,.023-.017,0,0,.023-.016h0l.023-.016,0,0,.023-.016h0l.023-.016,0,0L7.01,21.7h0l.024-.016,0,0,.023-.016h0l.023-.016h0l.023-.016h0l.024-.016,0,0,.023-.016h0l.024-.015h0l.023-.016,0,0,.024-.015,0,0,.024-.016,0,0,.024-.015h0l.024-.015,0,0,.024-.015h0l.024-.015h0l.024-.015h0l.024-.015h0l.024-.014h0L18.44,14.635h0l.024-.014h0l.025-.013,0,0,.025-.013,0,0,.024-.013h0l.025-.013,0,0,.024-.013,0,0,.024-.013,0,0,.024-.013,0,0,.025-.013h0l.024-.013h0l.024-.013h0l.025-.013h0l.025-.013h0l.025-.012h0l.025-.012h0l.024-.012h0l.025-.012h0l.025-.012h0l.025-.012,0,0,.025-.012h0l.025-.012h0l.025-.011h0l.025-.011,0,0,.025-.011h0l.025-.011,0,0,.025-.011h0l.025-.011h0l.025-.011h0l.025-.011h0l.025-.011h0l.025-.01h0l.025-.011h0l.026-.011h0l.026-.011,0,0,.025-.01h0l.026-.01h0l.025-.01h0l.026-.01.032-.011.026-.01h0l.026-.01.061-.02.025-.009.032-.011.025-.009.029-.01h0l.087-.029.026-.008h0l.026-.008h0L19.917,14h0l.026-.008h0l.026-.008h0L20,13.974h0l.026-.008h0l.026-.008h0l.026-.008h0l.026-.006h0l.026-.006h0l.026-.008h0l.027-.006h0l.026-.008h0l.027-.006h0l.027-.006h0l.026-.006h0l.027-.006h0l.026-.006h0l.026-.005h0l.026-.006h0l.026-.005h0l.026-.005h0l.026-.005h0l.026-.005h0l.027-.005h0l.027-.005h0l.027-.005h0l.027-.005h0l.027,0h0l.026,0h0l.027-.005h0l.027,0h0l.026,0h0l.027,0h0l.026,0h0l.026,0h0l.027,0h0l.027,0h0l.027,0h0l.027,0h0l.027,0h0l.026,0h0l.027,0h0l.027,0h0l.027,0h0l.026,0h0l.026,0h0l.027,0h0l.027,0h0l.026,0h0l.027,0h0l.027,0h0l.027,0h0l.026,0h0l.027,0h.033l.027,0h.032l.027,0h.422ZM22,16.579h-.108l-.055,0H21.8l-.052,0H21.71l-.037,0-.017,0L21.6,16.6l-.017,0-.018,0-.034,0-.018,0-.069.009-.018,0-.017,0-.017,0-.018,0-.1.019-.017,0-.018,0-.017,0-.018,0-.052.01-.052.013-.034.006-.172.043-.017.005-.017,0-.017.005-.016.005-.086.027-.016.005L20.7,16.8l-.017.006-.034.011-.017.006-.034.011-.016.005-.052.019-.016.006-.017.006-.032.013-.017.008-.052.019-.016.008-.016.006-.017.008-.048.023-.017.008-.016.008-.017.008L20.2,17,20.183,17l-.032.015-.032.017-.016.008-.016.009-.016.008-.081.043-.016.01-.015.009-.016.009-.015.009-.048.029-.015.009-.016.01-.015.01-.032.019-.017.011-11.009,6.8-.03.022-.016.011-.09.065-.015.012-.015.011-.09.071-.014.012-.03.024-.014.012-.03.024-.014.012-.015.012-.028.024-.028.026-.028.024-.154.142-.013.013-.014.013-.013.014-.014.013-.013.014-.013.013-.013.014-.013.013-.026.028L8,24.683l-.039.042-.012.014-.039.042L7.9,24.8l-.013.014-.024.028-.013.015-.012.014-.013.014-.012.015L7.8,24.91,7.733,25l-.011.015-.047.06-.032.045-.011.016-.022.03-.011.016-.043.06-.01.016-.011.016-.011.015-.011.016-.01.016-.01.015-.039.065-.022.032-.1.161-.01.017-.019.032-.01.017-.009.016-.026.052-.017.032-.009.017-.009.016-.009.017-.008.016-.043.086L7.1,26.07l-.006.017L7.09,26.1l-.008.018-.023.052-.006.017-.008.018-.008.017-.006.017-.006.018-.006.017-.006.018-.006.017-.019.055-.005.018-.006.017-.006.018-.005.018-.005.017-.005.018-.006.018-.011.034-.005.018-.006.018-.005.018-.005.017-.027.091-.009.037-.005.018,0,.018-.005.018-.009.037,0,.019-.026.11,0,.018,0,.018,0,.018-.013.077-.006.037-.006.039-.01.055,0,.019,0,.039,0,.018,0,.019,0,.018-.013.116,0,.018,0,.039v.019l0,.039-.011.194v.019l0,.039v.039l0,13.75.008.135,0,.019,0,.058,0,.018,0,.019,0,.018v.019l.009.073,0,.019,0,.037,0,.039,0,.018,0,.019.013.073,0,.019.013.073,0,.018.01.055.009.037,0,.018.03.128,0,.017.005.017.013.055.005.018,0,.017,0,.018,0,.017.005.018,0,.017.011.037.005.017.011.037.005.017.005.018.026.069.005.017.006.018.058.155.015.034.032.086.083.189.008.016.009.017.009.016.009.017.052.1.01.016.026.048.019.032.026.048.01.016.009.016.01.015.01.016.01.015.019.032.039.06.019.032.011.015.01.015.01.016.019.03.022.03.011.016.075.105.024.03.043.06.024.028.012.015.012.014.012.015.13.154.026.028.012.014.013.013.013.014.013.013.013.014.012.014.013.014.052.052.013.014.065.065.014.013.026.026.014.013.026.026.014.013.028.024.028.026.028.024.028.026.014.012.045.035.028.024.015.012L8.437,45l.015.011.014.012.045.035.014.011.015.012.015.011.03.024.03.022.016.011.09.065.016.011.016.01.016.011.015.011.032.022.015.01.081.048.017.01.032.019.018.011,11.41,6.663.077.039.012.006.026.013.013.005.013.006.039.016.026.013.013.005.013.006.116.048.013,0,.014.005.052.021.013,0,.013.005.026.009.014,0,.013,0,.012,0,.028.009.027.009.188.053.081.019.027.005.027.006.081.016.027,0,.027.005.054.009.028,0,.027,0,.084.01.028,0,.027,0,.028,0,.027,0,.056,0,.027,0,.054,0h.222l.056,0,.056,0h.028l.084-.006.027,0,.056-.006.027,0,.028,0,.027,0,.028,0,.027,0,.028,0,.027,0,.027-.005.027,0,.028-.005.027-.005.027-.006.027-.005.108-.026.108-.03.028-.009.039-.013.014,0,.013,0,.014,0,.026-.009.014,0,.026-.009.014-.005.013,0,.014,0,.013-.005.039-.013.014-.005.013,0,.129-.054.026-.013.013-.005.026-.013.013-.005.039-.019.012-.006.1-.052.012-.006L23.645,52l.014-.008L36.2,45.008,36.209,45l.014-.008.039-.023.026-.017.039-.023.026-.017.013-.008.013-.009.013-.008.059-.043.013-.009.012-.009.013-.009.059-.043.013-.009.012-.01.012-.009.012-.01.012-.009.035-.029.024-.017.012-.01.011-.01.024-.019.011-.009.012-.01.012-.011.011-.01.012-.01.022-.019.011-.011.012-.01.011-.011.011-.01.022-.021.011-.01.011-.011.011-.01.043-.043.01-.011.011-.011.01-.011.032-.032.039-.043.011-.011.068-.075.029-.035.029-.032.01-.012.01-.011.01-.012.009-.011.017-.024.009-.011.01-.012.1-.142.008-.012.008-.013.009-.013.009-.012.015-.024.009-.013.009-.012.008-.012.03-.052.008-.012.015-.026.008-.012L37.5,43.7l.013-.026.015-.026.006-.013.015-.026.013-.026.006-.014.006-.013.015-.026.019-.039.006-.014.013-.026.006-.014.013-.026.019-.042.006-.013.005-.013L37.7,43.3l.005-.013.016-.042.005-.013.027-.07.017-.056.022-.056,0-.014.005-.014L37.807,43l.005-.014.017-.056,0-.014.017-.056,0-.014,0-.015,0-.014,0-.014,0-.015,0-.014.01-.042,0-.015.006-.028,0-.015,0-.015,0-.014,0-.015,0-.014.006-.03,0-.014,0-.015,0-.015,0-.015,0-.014,0-.014.015-.105v-.015l0-.014v-.015l0-.015,0-.014,0-.015,0-.06,0-.015.012-.166v-.045l-.01-15.051v-.054l0-.014,0-.026,0-.013v-.013l0-.014v-.013l0-.013,0-.014v-.027l0-.012,0-.028,0-.027,0-.028,0-.027-.011-.054,0-.027-.005-.027-.045-.188-.023-.081-.009-.027-.008-.026-.034-.1-.019-.052-.01-.025-.029-.077-.011-.025-.01-.026-.032-.074-.012-.025-.011-.025-.024-.049-.012-.024-.013-.025-.012-.025-.013-.025-.065-.118-.042-.071-.015-.024-.028-.045-.09-.135-.081-.108-.069-.086-.017-.02-.018-.02-.017-.02-.091-.1-.1-.1-.041-.039-.1-.091-.022-.018-.043-.034-.02-.017-.023-.018-.01-.008-.043-.034-.011-.008-.022-.017-.024-.017-.032-.026-.011-.008-.011-.009-.012-.009L36.5,24.42l-.012-.009-.024-.015-.011-.008-.106-.068-.024-.013-.014-.008L23.919,17.037l-.048-.026L23.855,17l-.016-.009-.032-.015-.016-.009-.017-.008-.032-.015-.017-.008-.016-.008-.016-.006-.017-.008-.016-.008-.016-.008-.017-.006-.016-.006-.017-.006-.017-.008-.017-.006-.017-.008-.017-.006-.033-.013-.017-.006-.034-.013-.016-.006-.032-.011-.017-.006-.017-.005-.016-.005-.034-.011-.016-.005-.052-.016-.016-.005-.052-.016-.017,0-.017-.005-.017,0-.017-.005-.052-.013-.017-.005L23,16.69l-.017,0-.052-.013-.017,0-.017,0-.034-.006-.017,0-.1-.019-.018,0-.069-.009-.034-.006-.017,0-.018,0-.017,0-.017,0-.086-.011-.018,0h-.017l-.034,0-.086-.005-.037,0-.034,0H22.22l-.034,0h-.018l-.034,0h-.12Z" transform="translate(0 -2.398)" fill="#c9177e" fill-rule="evenodd"/>
    <path id="Tracé_15" data-name="Tracé 15" d="M96.91,124.978V102.7h4.662v8.116H109.3V102.7h4.675v22.282H109.3v-9.743h-7.733v9.743H96.91Z" transform="translate(-83.098 -81.845)" fill="#fff"/>
    <path id="Tracé_16" data-name="Tracé 16" d="M432.423,49.8V36.612a4.745,4.745,0,0,0-2.341-4.091L417.87,25.346a5.659,5.659,0,0,0-5.837.062L401.7,31.784a7.212,7.212,0,0,0-3.427,6.139v12.91a6.032,6.032,0,0,0,2.988,5.207l11.261,6.582a4.906,4.906,0,0,0,4.861.051l12.467-6.944a5.023,5.023,0,0,0,2.578-4.387V49.8Z" transform="translate(-352.051 -12.117)" fill="#0594cb" fill-rule="evenodd"/>
    <path id="Tracé_17" data-name="Tracé 17" d="M402.938,11h.355l.027,0h0l.027,0h0l.027,0h0l.027,0h0l.027,0h0l.026,0h0l.027,0h0l.027,0h0l.026,0h0l.027,0h0l.027,0h0l.027,0h0l.026,0h0l.027,0h0l.026,0h0l.027,0h0l.027,0h0l.027,0h0l.026,0h0l.026,0h0l.026,0h0l.026,0h0l.027,0h0l.027,0h0l.027,0h0l.026,0h0l.027,0h0l.026,0h0l.027,0h0l.027,0h0l.026.005h0l.027.005h0l.026,0h0l.026.005h0l.027.005h0l.027.005h0l.026.005h0l.026.005h0l.027.005h0l.026.005h0l.026.006h0l.026.006h0l.026.006h0l.026.006h0l.026.006h0l.026.006h0l.026.008h0l.026.006h0l.026.006h0l.026.006h0l.026.006h0l.026.006h0l.026.008h0l.026.008h0l.026.008h0l.026.008h0l.026.008h0l.026.008h0l.026.008h0l.026.008h0l.026.008h0l.026.009h0l.026.009h0l.055.018h0l.026.009h0l.113.038h0l.029.01.026.01h0l.026.01h0l.025.01h0l.026.01h0l.025.01h0l.026.01h0l.025.011h0l.025.011h0l.025.011h0l.026.01h0l.025.011h0l.026.011h0l.025.011h0l.025.011h0l.026.011h0l.025.011h0l.025.012h0l.025.011h0l.025.012h0l.025.012h0l.026.011,0,0,.025.012h0l.025.012h0l.025.012h0l.025.012h0l.025.012h0l.025.012h0l.024.013,0,0,.025.013h0l.025.013h0l.025.013h0l.025.013,0,0,.024.013h0l.025.013h0l.024.013h0l.025.013h0l.024.013h0l.024.014h0l.024.014,0,0,.024.014,0,0,.024.014,0,0,.025.014,12.526,7.381.037.025.005,0,.038.026.005,0,.037.026,0,0,.037.026.005,0,.037.026.005,0,.155.117,0,0,.036.028,0,0,.034.028,0,0,.034.028,0,0,.034.028,0,0,.034.029,0,0,.034.029,0,0,.033.029,0,0,.033.029,0,0,.033.029,0,0,.032.03,0,0,.032.03,0,0,.032.03,0,0,.031.03,0,0,.032.031.106.106,0,0,.031.032,0,0,.03.032,0,0,.03.032,0,0,.03.032,0,0,.03.033,0,0,.029.033,0,0,.029.033,0,0,.029.033,0,0,.028.033,0,0,.029.033,0,0,.028.033,0,.005.028.034,0,0,.027.034,0,.005.027.034,0,0,.027.035,0,0,.026.035,0,0,.026.035,0,0,.026.035,0,0,.026.035,0,0,.025.037,0,.005.025.037,0,.005.025.037,0,0,.025.037,0,.005.024.037,0,.005.024.037,0,.005.024.038,0,.005.024.038,0,.005.023.037.026.043,0,.005.023.038,0,0,.021.038,0,.005.023.039,0,.005.022.039,0,0,.02.039,0,.005.021.039,0,.005.02.039,0,.005.019.039,0,.005.02.04,0,0,.019.04,0,.005.019.04,0,.005.018.04,0,.005.019.04,0,.005.018.04,0,.005.017.04,0,.005.017.041,0,.005.017.041,0,.005.017.041,0,.005.017.041,0,.005.016.041,0,.005.016.041,0,.005.015.041,0,.005.015.041,0,.005.015.042,0,.005.014.042,0,.005.014.042,0,.005.014.042,0,.005.014.042,0,.005.013.042v.005l.013.042,0,.005.013.042v.005l.012.043,0,.005.012.042,0,.005.012.043,0,.005.011.043v.005l.011.043v.005l.011.043v.005l.011.043v.006l.01.043,0,.005.01.044v.005l.01.043v.005l.01.044v.005l.018.094v.006l.008.044v.006l.008.044v.005l.006.044v.006l.006.044v.006l.006.044v.005l.006.044v.006l.005.045v.006l.005.044v.006l.005.044v.005l0,.045v.005l0,.045v.006l0,.045v.005l0,.044v.006l0,.045v.006l0,.044v.206l-.01,15.218v.055l0,.024v0l0,.025v.031l0,.025v.03l0,.025v0l0,.024v0l0,.024v0l0,.025v0l0,.024v0l0,.024v0l0,.024v0l0,.025v0l0,.024v0l0,.024v0l0,.024v0l0,.024v0l0,.024v0l0,.024v0l0,.024v0l0,.024v0l0,.024v0l0,.024v0l0,.024v0l0,.024v0l0,.024v0l0,.024v0l0,.024v0l0,.024v0l0,.024v0l0,.024v0l0,.023v0l-.005.024v0l-.005.024v0l0,.024v0l0,.023v0l-.005.024v0l-.005.024v0l-.005.024v0l-.005.024v0l-.005.023v0l-.005.024v0l-.005.024v0l-.006.023v0l-.005.023v0l-.005.024v0l-.007.024v0l-.005.023v0l-.006.023v0l-.006.023v0l-.006.023v0l-.006.023v0l-.006.023v0l-.006.023v0l-.006.023v0l-.006.023-.034.1v0l-.025.074v0l-.008.023v0l-.026.077-.009.023-.017.052v0l-.009.023v0l-.009.023v0l-.009.022v0l-.009.023v0l-.009.022v0l-.009.023v0l-.009.022v0l-.009.022v0l-.009.022v0l-.009.022v0l-.009.022v0l-.01.023v0l-.01.022v0l-.01.022v0l-.01.022v0l-.01.022v0l-.01.022v0l-.01.022v0l-.01.022,0,0-.01.022v0l-.011.02v0l-.01.022,0,0-.01.022-.013.026-.01.02-.012.024,0,0-.011.02v0l-.011.02-.013.026-.011.02-.012.024v0l-.011.02,0,0-.012.02v0l-.012.022v0l-.011.02v0l-.012.02-.013.026-.012.02v0l-.012.02,0,0-.011.02,0,0-.012.02,0,0-.012.02v0l-.012.02,0,0-.012.02,0,0-.012.02v0l-.012.02v0l-.012.02v0l-.012.02v0l-.013.02,0,0-.013.02,0,0-.015.023-.013.02,0,0-.012.019v0l-.013.02v0l-.013.019,0,0-.013.019v0l-.013.019v0l-.013.019v0l-.013.019v0l-.013.019v0l-.013.019v0l-.014.019,0,0-.013.019,0,0-.015.023-.014.019,0,0-.014.019v0l-.014.019,0,0-.014.019v0l-.014.019v0l-.014.019,0,0-.015.018,0,0-.014.019,0,0-.014.018,0,0-.014.019,0,0-.015.019,0,0-.014.018,0,0-.014.018,0,0-.014.018,0,0-.015.018,0,0-.015.018v0l-.015.018,0,0-.015.018,0,0-.015.018,0,0-.015.018v0l-.015.018,0,0-.015.018v0l-.015.018v0l-.015.018,0,0-.016.018,0,0-.016.017v0l-.016.017,0,0-.015.017,0,0-.016.017,0,0-.016.017,0,0-.016.017,0,0-.016.017,0,0-.016.017,0,0-.016.017,0,0-.016.017-.022.022-.016.017,0,0-.016.017v0l-.019.019-.016.017,0,0-.016.017-.021.022-.017.016,0,0-.017.016-.021.022-.017.016,0,0-.017.016,0,0-.017.016,0,0-.017.016,0,0-.018.017,0,0-.017.016,0,0-.017.016,0,0-.017.016,0,0-.018.016,0,0-.018.016,0,0-.018.015,0,0-.018.016h0l-.018.015,0,0-.018.016,0,0-.018.015,0,0-.018.015,0,0-.018.015,0,0-.018.016h0l-.018.015,0,0-.018.015,0,0-.018.015,0,0-.018.015,0,0-.018.015h0l-.018.015,0,0-.018.015,0,0-.019.015,0,0-.019.015,0,0-.019.015,0,0-.018.015h0l-.019.015h0l-.019.015,0,0-.019.014,0,0-.019.014h0l-.019.014h0l-.019.014h0l-.019.015h0l-.019.014h0l-.019.014,0,0-.02.014h0l-.02.014,0,0-.02.013,0,0-.019.014,0,0-.019.013,0,0-.02.013,0,0-.019.013h0l-.02.014,0,0-.02.013h0l-.02.013h0l-.02.013h0l-.02.013h0l-.02.013,0,0-.02.013,0,0-.02.012,0,0-.02.013h0l-.02.013h0l-.021.013h0l-.021.013,0,0-.021.013h0l-.02.013h0l-.022.013,0,0-.022.012h0l-.022.013h0l-.02.012h0l-12.517,6.97-.02.011,0,0-.02.012h0l-.02.012,0,0-.02.011,0,0-.02.011-.026.013-.02.011h0l-.02.01,0,0-.022.01h0l-.02.011-.026.013-.02.01,0,0-.021.01h0l-.02.01h0l-.021.01h0l-.02.01h0l-.021.01h0l-.021.01h0l-.021.01h0l-.02.01h0l-.02.01h0l-.021.01h0l-.02.009h0l-.021.01h0l-.022.01h0l-.021.009h0l-.022.009h0l-.021.009h0l-.022.009h0l-.021.009h0l-.022.009h0l-.021.008h0l-.02.009h0l-.022.009h0l-.022.008h0l-.022.008h0l-.021.009h0l-.022.008h0l-.021.009h0l-.022.008h0l-.021.008h0l-.021.008h0l-.022.006h0l-.021.008h0l-.022.008h0l-.021.008h0l-.021.008h0l-.023.006-.026.009h0l-.023.006h0l-.043.013h-.005l-.044.013h-.006l-.043.012h-.006l-.044.012-.005,0-.044.012h-.005l-.044.011h-.005l-.044.011-.006,0-.044.011h-.006l-.044.011h-.007l-.044.01h-.005l-.044.01h-.005l-.044.01h-.005l-.045.009h-.005l-.044.008h-.005l-.045.009h-.005l-.045.008h-.005l-.045.008h-.005l-.044.006h-.006l-.044.006h-.005l-.044.006h-.005l-.044.006h-.005l-.045.005h-.005l-.045.005h-.005l-.045.005h-.005l-.045,0h-.006l-.045,0h-.005l-.045,0h-.005l-.045,0h-.005l-.045,0h-.006l-.045,0h-.006l-.045,0h-.005l-.045,0h-.049l-.045,0h-.408l-.045,0h-.005l-.045,0h-.005l-.045,0h-.005l-.045,0h-.005l-.045,0h-.005l-.045,0h-.005l-.045,0h-.005l-.045-.005h-.005l-.045-.005h-.005l-.044-.005h-.005l-.045-.005h-.005l-.045-.006h-.005l-.045-.006h-.005l-.044-.006h-.005l-.044-.006h-.005l-.045-.008h-.005l-.045-.008h-.005l-.044-.009h-.005l-.044-.009h-.005l-.044-.009h-.006l-.044-.009h-.005l-.044-.01h-.005l-.045-.01h-.005l-.044-.011h-.005l-.044-.011h-.006l-.044-.011h-.006l-.044-.011-.005,0-.044-.012h-.005l-.044-.012-.005,0-.044-.013h-.005l-.043-.013h-.006l-.043-.013h-.005l-.043-.014h-.005l-.068-.023h0l-.021-.006h0l-.021-.008h0l-.021-.006h0l-.021-.008h0l-.021-.008h0l-.021-.008h0l-.022-.008h0l-.022-.008h0l-.021-.009h0l-.022-.008h0l-.021-.008h0l-.022-.009h0l-.021-.009h0l-.022-.009h0l-.022-.009h0l-.022-.009h0l-.022-.009h0l-.022-.01h0l-.021-.009h0l-.021-.009,0,0-.021-.009h0l-.02-.009h0l-.02-.009h0l-.02-.01h0l-.021-.01h0l-.022-.01h0l-.02-.01h0l-.021-.01h0l-.02-.01h0L400.19,52l0,0-.02-.01h0l-.022-.01h0l-.02-.011,0,0-.02-.01-.024-.012,0,0-.02-.011h0l-.02-.011h0L400,51.9l0,0-.02-.011h0l-.02-.011h0l-.02-.011h0l-.02-.012,0,0-.02-.011h0l-.02-.011,0,0-.02-.012,0,0-.02-.012,0,0-.02-.011h0l-.02-.012h0l-.02-.012h0l-.02-.012,0,0-.019-.012h0L388.174,45l0,0-.024-.015h0l-.024-.016h0l-.023-.015,0,0-.024-.016-.026-.017h0l-.024-.016,0,0-.024-.015,0,0-.023-.015h0l-.024-.016,0,0-.023-.016,0,0-.023-.016h0l-.023-.016,0,0-.023-.016,0,0-.023-.016,0,0-.023-.017,0,0-.023-.016,0,0-.023-.017,0,0-.023-.016,0,0-.022-.017,0,0-.023-.017,0,0-.023-.017,0,0-.023-.017,0,0-.021-.017h0l-.022-.017,0,0-.022-.017,0,0-.021-.017,0,0L387.5,44.5l0,0-.022-.017,0,0-.021-.018,0,0-.021-.017,0,0-.021-.017,0,0-.021-.018,0,0-.021-.017,0,0-.021-.018,0,0-.021-.017,0,0-.022-.018h0l-.02-.018,0,0-.02-.018,0,0-.022-.018,0,0-.02-.018,0,0-.02-.018,0,0-.02-.019,0,0-.02-.018,0,0-.02-.018,0,0-.02-.018,0,0-.02-.018-.021-.022h0l-.02-.019,0,0L387,44.055l-.045-.045-.019-.018-.045-.045-.019-.02,0,0-.018-.019v0l-.019-.02-.024-.024-.018-.019-.024-.024-.018-.02,0,0-.019-.02,0,0-.018-.02,0,0-.018-.02,0,0-.018-.02,0,0-.018-.02,0,0-.018-.02,0,0-.018-.02,0,0-.018-.02,0,0-.017-.02,0,0-.018-.02,0,0-.018-.02,0,0-.017-.02,0,0-.017-.02,0,0-.017-.022,0,0-.018-.022,0,0-.018-.022v0l-.017-.02,0,0-.017-.022v0l-.017-.022v0l-.017-.022,0,0-.017-.022,0,0-.017-.022v0l-.016-.022v0l-.017-.022,0,0-.016-.022,0,0-.016-.023v0l-.016-.022,0,0-.016-.023,0,0-.016-.023,0,0-.016-.021v0l-.016-.022,0,0-.016-.023v0l-.016-.023,0,0L386.091,43v0l-.016-.023,0,0-.016-.022v0l-.016-.023-.017-.026v0l-.032-.048,0,0-.015-.023v0l-.015-.023,0,0-.015-.023v0l-.015-.023v0l-.015-.024v0l-.015-.024v0l-.014-.023v0l-.014-.024v0l-.014-.024v0l-.014-.023v0l-.014-.024v0l-.014-.024,0,0-.013-.023,0,0-.014-.024v0l-.014-.024v0l-.014-.024v0l-.014-.024v0l-.014-.024,0,0-.013-.024v0l-.013-.024v0l-.014-.024v0l-.013-.024v0l-.013-.024v0l-.013-.024v0l-.013-.024v0l-.013-.024v0l-.013-.024,0,0-.025-.049v0l-.013-.025v0l-.012-.025v0l-.013-.026-.012-.025v0l-.012-.025v0l-.012-.025v0l-.012-.025v0l-.012-.025v0l-.011-.025v0l-.012-.025v0l-.012-.025,0,0-.011-.025v0l-.011-.025v0l-.011-.025v0l-.011-.025v0l-.011-.025v0l-.011-.026v0l-.011-.025v0l-.01-.025v0l-.011-.025v0l-.011-.025v0l-.011-.026v0l-.01-.026v0l-.01-.025v0l-.01-.025v0l-.01-.026v0l-.01-.026v0l-.01-.026v0l-.01-.026v0l-.01-.026v0l-.01-.026-.01-.029v0l-.01-.029-.01-.026-.058-.174v0l-.009-.027v0l-.018-.055v0l-.01-.029-.008-.026v0l-.008-.026v0l-.008-.026v0l-.008-.026v0l-.008-.026v0l-.008-.027v0L385,40.662v0l-.006-.027v0l-.007-.026v0l-.006-.027v0l-.006-.027v0l-.006-.027v0l-.006-.027v0l-.006-.027v0l-.006-.027v0l-.006-.027v0l-.006-.027v0l-.006-.027v0l-.007-.027v0l-.006-.027v0l-.005-.027v0l-.005-.027v0l-.005-.027v0l-.005-.027v0l-.011-.054v0l-.005-.027v0l-.005-.027v0l-.005-.028v0l0-.028v0l0-.027v0l0-.027v0l0-.027v0l0-.027v0l0-.028v0l-.009-.054v0l0-.027v0l0-.028v0l0-.028,0-.028v0l0-.027v0l0-.027,0-.027v0l0-.027v0l0-.027v0l0-.027v0l0-.027v0l0-.028v0l0-.028v0l0-.028v0l0-.028v0l0-.028v-.033l0-.028v0l0-.028v0l0-.028v0l0-.028V39.1l0-.028v0l0-.056v-.185l0-13.2v-.211l0-.032v-.139l0-.032v0l0-.032v0l0-.032v0l0-.031v0l0-.031v0l0-.032v0l0-.031v0l0-.031V24.97l0-.032v0l0-.032v0l0-.032v0l0-.032v0l0-.031v0l0-.031v0l0-.031v0l0-.031v0l0-.032v0l0-.031v0l0-.031v0l0-.031v0l0-.032v0l.005-.031v0l.005-.031v0l.005-.031v0l.005-.031v0l.005-.031v0l.005-.031v0l.005-.031v0l.005-.031v0l.005-.031v0l.005-.031v0l.005-.031v0l.005-.031v0l.005-.031v0l.006-.031v0l.006-.031v0l.006-.031v0l.006-.031v0l.006-.03v0l.006-.031v0l.008-.031v0l.008-.031v0l.008-.03v0l.008-.031v0l.008-.03v0l.008-.031v0l.008-.031v0l.008-.031v0l.008-.031v0l.009-.031v0l.009-.03v0l.009-.03v0l.009-.03v0l.009-.03v0l.009-.03v0l.009-.03v0l.009-.03v0l.009-.03v0l.01-.03v0l.009-.03v0l.01-.03v0l.01-.03v0l.01-.03v0l.01-.03v0l.01-.03.011-.032v0l.01-.029v0l.011-.029v0l.011-.03v0l.011-.029v0l.011-.03v0l.011-.03v0l.011-.03v0l.011-.029v0l.011-.03v0l.011-.03v0l.012-.029v0l.012-.029v0l.012-.029v0l.012-.029v0l.012-.029v0l.012-.029v0l.012-.029v0l.012-.029v0l.013-.029v0l.012-.028v0l.013-.028v0l.012-.028v0l.013-.029v0l.013-.028v0l.013-.028,0,0,.013-.028v0l.013-.028v0l.013-.028v0l.013-.029v0l.014-.029.015-.03v0L385.6,22v0l.013-.028v0l.044-.088,0,0,.015-.028,0,0,.015-.03.015-.028v0l.029-.058,0,0,.014-.027.015-.03v0l.015-.028v0l.015-.027v0l.015-.027v0l.016-.028v0l.015-.027v0l.016-.027v0l.016-.028v0l.016-.027v0l.016-.027v0l.016-.027,0,0,.016-.027v0l.016-.027,0,0,.016-.027v0l.016-.027v0l.016-.027,0,0,.016-.026,0,0,.017-.027v0l.016-.027v0l.017-.027,0,0,.016-.027,0,0,.017-.026v0l.017-.026,0,0,.017-.026,0,0,.017-.026v0l.017-.026,0,0,.017-.026v0l.017-.026v0l.017-.026v0l.018-.026,0,0,.017-.026v0l.018-.025v0l.018-.025v0l.018-.026v0l.018-.025v0l.018-.026,0,0,.018-.025,0,0,.018-.025,0,0,.019-.025v0l.018-.025v0l.018-.025,0,0,.019-.025,0,0,.018-.025,0,0,.019-.025v0l.019-.025,0,0,.019-.025,0,0,.02-.025,0,0,.019-.025v0l.019-.024,0,0,.019-.025,0,0,.019-.025v0l.02-.025,0,0,.019-.024,0,0,.02-.024,0,0,.02-.024,0,0,.02-.024v0l.02-.024,0,0,.02-.024,0,0,.02-.024,0,0,.02-.024v0l.02-.024,0,0,.02-.023,0,0,.021-.024,0,0,.02-.024,0,0,.021-.024,0,0,.021-.024v0l.025-.025.022-.023,0,0,.021-.023,0,0,.021-.023.076-.076.023-.022,0,0,.022-.023v0l.025-.025.023-.022,0,0,.023-.022,0,0,.023-.022,0,0,.023-.022,0,0,.024-.022,0,0,.023-.022,0,0,.023-.022,0,0,.024-.022,0,0,.024-.022,0,0,.024-.022,0,0,.024-.022,0,0,.024-.02,0,0,.024-.02,0,0,.024-.02,0,0,.024-.02,0,0,.024-.02,0,0,.025-.02,0,0,.024-.02,0,0,.024-.022,0,0,.025-.02,0,0,.025-.02h0l.025-.019,0,0,.025-.02,0,0,.025-.02,0,0,.025-.02,0,0,.025-.02,0,0L388,19h0l.025-.019,0,0,.026-.019,0,0,.026-.019,0,0,.026-.019,0,0,.026-.019,0,0,.026-.019,0,0,.026-.019,0,0,.026-.019h0l.026-.019h0l.026-.019,0,0,.026-.018,0,0,.027-.018h0l.026-.018,0,0,.026-.018h0l.026-.018,0,0,.026-.018,0,0,.026-.018h0l.027-.018h0l.026-.018h0l.026-.018h0l.027-.018,0,0,.027-.018h0l.027-.017,0,0,.027-.017h0l.027-.017h0l.027-.017,0,0,.028-.017h0l.027-.017,0,0,.027-.016h0L399.249,12l.025-.014h0l.024-.014,0,0,.024-.014,0,0,.025-.014h0l.024-.014,0,0,.024-.014h0l.025-.014h0l.024-.014,0,0,.024-.013h0l.024-.013h0l.025-.013,0,0,.025-.013h0l.025-.013h0l.025-.013,0,0,.025-.012,0,0,.025-.013h0l.025-.012,0,0,.024-.012,0,0,.025-.012h0l.025-.013h0l.025-.012h0l.025-.012h0l.025-.012h0l.025-.012h0l.025-.012h0l.025-.012h0l.025-.011h0l.025-.012h0l.025-.011h0l.025-.011h0l.025-.011h0l.025-.011h0l.025-.011h0l.026-.011h0l.025-.011h0l.025-.01h0l.026-.011h0l.025-.011h0l.026-.01h0l.026-.01h0l.025-.01h0l.026-.01h0l.025-.01h0l.026-.01h0l.026-.01h0l.026-.01h0l.084-.028h0l.084-.028h0l.029-.01.026-.008h0l.026-.009h0l.026-.008h0l.026-.008.032-.011.026-.008h0l.026-.008h0l.026-.008h0l.026-.008h0l.026-.008h0l.026-.008h0l.026-.008h0l.026-.008h0l.026-.006h0l.026-.008h0l.026-.006h0l.026-.006h0l.026-.006h0l.026-.006h0l.026-.006h0l.027-.006h0l.027-.006h0l.026-.006h0l.026-.006h0l.026-.005h0l.026-.005h0l.027-.005h0l.027-.005h0l.027-.005h0l.026-.005h0l.026,0h0l.027,0h0l.026,0h0l.026-.005h0l.026,0h0l.027,0h0l.026,0h0l.027,0h0l.027,0h0l.027,0h0l.026,0h0l.026,0h0l.027,0h0l.026,0h0l.026,0h0l.026,0h0l.026,0h0l.026,0h0l.027,0h0l.027,0h0l.026,0h0l.027,0h0l.027,0h0l.027,0h0l.027,0h0l.027,0h0l.027,0h0l.026,0h0l.027,0h0l.027,0h.063l.027,0h.367Zm-.025,2.9H402.7l-.037,0h-.017l-.146.009h-.017l-.037,0-.017,0h-.017l-.018,0-.017,0-.055.006-.034,0-.018,0-.017,0-.018,0-.017,0-.034.006-.017,0-.1.019-.018,0-.017,0-.017,0-.017,0-.017,0-.017,0-.018,0-.017,0-.017,0-.12.03-.016,0-.034.009-.1.032-.016.005-.017.005-.016.005-.069.022-.032.013-.034.011-.016.006-.017.006-.016.005-.017.006-.032.013-.017.008-.016.006-.017.006-.016.006-.017.006-.017.008-.017.006-.161.075-.032.017-.016.008-.226.12-.016.01-.016.009-.016.01-.015.01-.016.01-.017.011-10.551,6.513-.019.013-.019.014-.018.013-.019.014-.018.013-.018.014-.019.013-.018.013-.039.028-.146.112-.018.015-.017.015-.017.014-.018.014-.018.015-.018.014-.12.105-.017.016-.052.045-.016.016-.034.03-.016.015-.034.032-.017.015-.016.015-.161.161-.015.017-.015.016-.032.034-.015.017-.015.016-.12.138-.014.017-.015.017-.014.018-.042.052-.015.018-.028.034-.07.091-.014.017-.014.018-.026.037-.014.018-.013.018-.013.019-.065.091-.077.116-.012.019-.013.018-.013.019-.012.018-.106.174-.011.02-.012.019-.012.02-.021.041-.012.019-.011.019-.011.02-.022.039-.021.041-.01.02-.022.041-.01.02-.01.019-.01.02-.011.02-.048.1-.009.022-.019.041-.009.02-.017.043-.009.02-.009.022-.01.022-.017.041-.009.022-.009.02-.034.086-.008.022-.009.022-.09.258-.013.043-.007.023-.013.043-.006.023-.019.065-.006.023-.013.045-.005.022-.006.022-.006.023-.006.023-.011.045-.005.022-.022.09,0,.023-.021.113-.005.023-.017.09,0,.023-.009.045,0,.023,0,.023,0,.023,0,.023-.006.047-.019.135,0,.024,0,.023,0,.024,0,.045,0,.024,0,.023,0,.024,0,.023,0,.024,0,.045,0,.047v.046l0,.095v.024l0,.068v.047l0,13.172v.038l0,.039v.018l0,.039,0,.018v.038l0,.037v.018l.009.073,0,.019.011.091.006.037,0,.018.006.037,0,.019.026.146,0,.018,0,.018,0,.018.009.037,0,.018.022.091,0,.017,0,.018,0,.018,0,.018.005.018,0,.017.005.018.005.017,0,.018.011.034,0,.018.005.018.005.017.011.037.005.017.006.017.005.018.016.052.006.018.039.1.006.018.019.052.006.018.007.017.007.017L388,40.5l.006.017.045.1.008.016.008.017.015.032.009.016.017.034.009.016.008.016.086.161.01.016.009.016.029.048.01.015.01.016.01.015.048.081.011.015.019.032.01.015.01.015.011.015.01.016.01.015.011.015.01.016.011.015.01.015.011.015.01.015.043.06.011.015.011.015.012.015.011.014.022.03.024.03.012.014.035.045.024.028.011.015.013.014.059.07.039.042.013.013.026.028.012.014.026.026.026.028.052.052.013.014.04.04.014.013.013.013.028.026.013.013.014.013.014.012.014.013.014.012.028.026.028.024.014.013.014.012.028.026.014.012.03.024.014.012.12.095.014.011.015.011.015.012.045.032.015.012.045.032.015.012.03.022.032.022.045.032.016.01.016.011.015.011.016.011.016.01.032.022.048.029.016.011.016.01.017.011,11.41,6.663.052.026.013.005.013.006.013.005.039.019.013.005.013.006.026.011.013.006.026.011.013.006.1.043.014.005.013,0,.014.005.026.009.013.005.026.009.013.005.026.009.014,0,.013,0,.012,0,.028.009.054.017.081.023.027.006.027.008.108.026.027.005.028.005.081.016.027,0,.112.017.028,0,.027,0,.056.006.028,0,.027,0,.028,0,.056,0,.027,0,.054,0,.084,0h.14l.056,0h.027l.168-.013.028,0,.027,0,.028,0,.027,0,.056-.006.027,0,.028,0,.027,0,.054-.011.027,0,.028-.005.054-.011.028-.006.027-.006.028-.006.027-.006.108-.03.027-.009.028-.009.012,0,.014,0,.039-.013.014,0,.039-.013.014-.005.013-.005.013,0,.014,0,.039-.013.026-.011.013,0,.065-.027.014-.005.026-.011.013-.006.052-.022.026-.013.052-.022.013-.006.012-.006.039-.019.012-.006.026-.013.013-.008.012-.006.013-.006.012-.008.013-.008.014-.008,12.623-7.036.013-.009.013-.008.026-.017.012-.009.052-.034.024-.017.039-.026.071-.052.012-.01.047-.034.047-.039.012-.009.024-.019.011-.009.022-.019.012-.01.065-.058.011-.011.011-.01.011-.011.032-.029.021-.022.011-.01.053-.053.029-.032.011-.011.068-.075.011-.011.087-.1.009-.012.01-.012.009-.011.01-.012.1-.142.009-.013.043-.059.009-.013.034-.047.008-.013.008-.012.008-.013.008-.012.015-.026.009-.013.008-.013.008-.012.03-.052.006-.013.06-.1.006-.013.015-.026.039-.077.006-.014.006-.013.005-.014.006-.013.006-.014.005-.013.006-.013.005-.013.006-.013.006-.014.005-.013.013-.028.027-.07.006-.014.005-.014.005-.013.021-.056.005-.013,0-.014.005-.013.011-.028.013-.042.005-.014,0-.014.005-.014,0-.013.022-.07,0-.015.009-.028,0-.014,0-.014,0-.014,0-.014,0-.015,0-.014L418.8,40l0-.015.013-.056.01-.045,0-.015.01-.042,0-.015.013-.09,0-.014.009-.06v-.029l0-.015,0-.014,0-.015,0-.06,0-.015v-.029l.005-.075v-.015l0-.06v-.106l-.009-14.934,0-.054,0-.027,0-.027,0-.027-.013-.107-.009-.053,0-.027,0-.026,0-.026-.005-.026,0-.026-.016-.077-.039-.155-.015-.049-.015-.052-.009-.025-.008-.025-.009-.026-.026-.074-.048-.124-.01-.024-.011-.025-.032-.071-.012-.024-.011-.024-.047-.095-.013-.023-.013-.024-.012-.024-.039-.068-.014-.023-.013-.023-.028-.045-.014-.022-.015-.022-.015-.023-.028-.043-.03-.043-.016-.022-.015-.022-.016-.02-.016-.022-.016-.02-.016-.022-.034-.041-.016-.02-.034-.041-.017-.019-.018-.019-.037-.041-.055-.058-.019-.019-.019-.018-.018-.019-.1-.091-.02-.018-.039-.037-.082-.069-.021-.017-.02-.017-.02-.016-.086-.065-.045-.03-.021-.015-.023-.015-.024-.016-.021-.015-.024-.015-.011-.008-.035-.023-.024-.013-.012-.008-.011-.008-.012-.008-.014-.008-12.29-7.236-.113-.06-.065-.03-.016-.009-.016-.008-.016-.009-.016-.008-.016-.009-.1-.045-.017-.008-.032-.015-.017-.008-.016-.008-.016-.006-.016-.008-.129-.052-.034-.013-.016-.005-.017-.006-.016-.006-.034-.011-.017-.006-.017-.005-.032-.011-.017-.005-.016-.005-.052-.016-.086-.022L404,14.037l-.069-.017-.017,0L403.824,14l-.017,0-.034-.009-.018,0-.138-.026-.037-.006-.017,0-.034,0-.017,0-.017,0-.017,0-.018,0-.069-.009h-.017l-.018,0-.017,0h-.018l-.017,0h-.018l-.034,0h-.018l-.017,0-.052,0h-.114l-.034,0h-.088Z" transform="translate(-339.97 0)" fill="#0083c0" fill-rule="evenodd"/>
    <path id="Tracé_18" data-name="Tracé 18" d="M477.292,109.38h4.547v12.061a26.442,26.442,0,0,0,.158,3.722,3.282,3.282,0,0,0,1.2,2.1,3.933,3.933,0,0,0,2.67.708,2.763,2.763,0,0,0,2.222-.708,2.811,2.811,0,0,0,1.105-1.779,22.028,22.028,0,0,0,.33-3.783V109.38h4.546v11.7a31.71,31.71,0,0,1-.345,5.666,6.068,6.068,0,0,1-3.747,4.61,10.239,10.239,0,0,1-4.048.676,11.079,11.079,0,0,1-4.572-.737,6.581,6.581,0,0,1-2.462-1.914,6.269,6.269,0,0,1-1.191-2.469,28.569,28.569,0,0,1-.417-5.651V109.38Z" transform="translate(-422.575 -87.811)" fill="#fff"/>
    <path id="Tracé_19" data-name="Tracé 19" d="M815.9,51.739V38.587a4.745,4.745,0,0,0-2.391-4.12l-12.223-6.985a5.658,5.658,0,0,0-5.718.06l-10.321,6.19a7.213,7.213,0,0,0-3.5,6.185V52.771a6.032,6.032,0,0,0,2.988,5.207L796,64.56a4.906,4.906,0,0,0,4.861.051l12.467-6.944A5.022,5.022,0,0,0,815.9,53.28V51.737Z" transform="translate(-694.294 -14.054)" fill="#33ba91" fill-rule="evenodd"/>
    <path id="Tracé_20" data-name="Tracé 20" d="M786.433,13.234h.349l.027,0h0l.027,0h0l.027,0h0l.026,0h0l.026,0h0l.026,0h.032l.026,0h0l.026,0h0l.026,0h0l.026,0h0l.026,0h0l.027,0h0l.026,0h0l.026,0h0l.026,0h0l.026,0h0l.027,0h0l.026,0h0l.026,0h0l.026,0h0l.026,0h0l.026,0h0l.026,0h0l.026,0h0l.026,0h0l.026,0h0l.026,0h0l.026,0h0l.026,0h0l.026,0h0l.026.005h0l.026.005h0l.026,0h0l.026,0h0l.026,0h0l.026.005h0l.026.005h0l.026.005h0l.026.005h0l.026.005h0l.026.005h0l.026.005h0l.026.005h0l.026.006h0l.026.006h0l.026.006h0l.026.006h0l.026.006h0l.026.006h0l.026.008h0l.026.006h0l.026.008h0l.026.006h0l.026.008h0l.026.008h0l.026.008h0l.026.008h0l.026.008h0l.029.01.026.008h0l.025.009h0l.026.008h0l.026.008.058.019h0l.029.01.025.009h0l.025.009h0l.025.009h0l.025.009h0l.025.009h0l.025.01h0l.025.009h0l.025.01h0l.025.01h0l.025.01h0l.025.01h0l.025.01h0l.025.01h0l.025.01h0l.025.01h0l.025.011h0l.025.01h0l.025.011h0l.025.011h0l.025.011h0l.025.011h0l.025.011h0l.025.011,0,0,.025.011h0l.024.011h0l.025.012h0l.024.012h0l.024.012h0l.025.012h0l.025.012.026.013h0l.024.012h0l.024.012h0l.024.013h0l.025.012,0,0,.026.013.024.013,0,0,.024.013h0l.024.013h0l.024.013h0l.024.013,0,0,.024.013,0,0,.024.013,0,0,.024.013,0,0,.024.014h0l.024.014,12.508,7.153.019.012h0l.019.012,0,0,.019.012.023.015h0l.019.013h0l.019.013h0l.019.013h0l.018.013h0l.018.013,0,0,.018.013,0,0,.018.013h0l.018.013h0l.018.013,0,0,.018.014,0,0,.018.013,0,0,.018.014h0l.018.014,0,0,.019.014h0l.018.014,0,0,.018.014,0,0,.018.014h0l.018.014,0,0,.018.014,0,0,.017.014,0,0,.018.014h0l.017.015,0,0,.018.015,0,0,.018.014,0,0,.017.014,0,0,.017.015h0l.018.015,0,0,.034.028,0,0,.034.03,0,0,.033.029,0,0,.033.03.005,0,.033.03,0,0,.033.031.005,0,.032.031,0,0,.032.031,0,0,.032.031,0,0,.032.031.041.041.031.032,0,0,.031.032,0,0,.031.032,0,0,.03.033,0,0,.03.032,0,0,.03.033,0,0,.03.033,0,.005.029.033,0,0,.029.034,0,.005.029.034,0,0,.028.034,0,0,.028.034,0,0,.028.034,0,0,.028.035,0,0,.028.035,0,0,.027.035,0,.005.027.035,0,.005.027.037,0,.005.026.037,0,0,.026.037,0,0,.025.037,0,.005.026.037,0,0,.025.037,0,.005.025.038,0,.005.025.038,0,.005.024.038,0,0,.024.038,0,.005.024.039,0,.005.024.038,0,0,.023.039.026.043,0,0,.021.039,0,.005.023.039,0,.005.021.039,0,0,.021.039,0,.005.02.039,0,.005.02.04,0,.005.02.04,0,.005.02.04,0,.005.019.04,0,.005.019.04,0,.005.019.04,0,.005.018.04,0,.005.018.04,0,.006.018.041,0,.005.017.041,0,.006.017.041,0,.005.017.041,0,.005.016.042,0,.005.016.042,0,.005.016.042,0,.005.016.042,0,.005.015.042,0,.005.015.042,0,.006.015.042,0,.005.014.042,0,.005.014.042,0,.005.013.043,0,.005.013.042,0,.005.013.043,0,.005.013.043,0,.005.013.043v.006l.012.043v.005l.012.043,0,.005.012.044v.006l.011.044v.005l.011.044v.006l.01.044v.005l.01.044v.006l.01.044v.005l.009.044,0,.006.009.044v.006l.008.043v0l0,.024v0l0,.023v0l0,.023v0l0,.023v0l0,.023v0l0,.023v0l0,.023v0l0,.023v0l0,.023v0l0,.023v0l0,.023v0l0,.022v0l0,.023v0l0,.023v0l0,.023v0l0,.023v0l0,.023v0l0,.022v0l0,.023v0l0,.023v0l0,.023v0l0,.023v0l0,.023v0l0,.023v0l0,.023v0l0,.023v.387l-.01,15.154,0,.025v0l0,.025v0l0,.025v0l0,.025v.031l0,.024v0l0,.024v0l0,.024v0l0,.024v0l0,.025v0l0,.024v0l0,.024v0l0,.024v0l0,.024v0l0,.024v0l0,.024v0l0,.025v0l0,.024v0l0,.024v0l0,.024v0l0,.024v0l0,.024v0l0,.025v0l0,.024v0l0,.024v0l0,.024v0l0,.024v0l0,.024v0l0,.024v0l0,.024v0l0,.024v0l0,.024v0l0,.024v0l0,.024v0l0,.024v0l-.005.024v0l0,.024v0l-.005.023v0l-.005.024v0l-.005.024v0l-.005.024v0l-.005.023v0l-.005.023v0l-.005.024v0l-.006.024v0l-.005.023v0l-.006.024v0l-.005.023v0l-.006.023v0l-.006.024v0l-.006.023v0L805.1,43v0l-.006.023v0l-.006.024v0l-.006.023v0l-.006.023v0l-.006.023v0l-.006.023v0l-.006.023v0l-.006.023v0l-.006.022v0l-.034.1-.009.023v0l-.009.026-.008.022v0l-.016.048v0l-.009.026-.009.023,0,0-.009.023v0l-.009.023v0l-.009.021v0l-.009.021v0l-.009.022v0l-.009.022v0l-.009.022v0l-.009.023v0l-.009.022v0l-.009.023v0l-.01.022v0l-.01.023v0l-.01.022v0l-.01.022,0,0-.009.022v0l-.01.022v0l-.01.021v0l-.01.022,0,0-.01.022v0l-.01.022v0l-.01.022,0,0-.012.024-.011.02v0l-.011.022v0l-.011.022v0l-.011.02-.024.047v0l-.011.02v0l-.011.02,0,0-.012.02-.013.026-.012.02-.013.026-.012.022v0l-.012.022v0l-.012.02v0l-.012.02v0l-.012.02v0l-.012.02,0,0-.012.02v0l-.012.02,0,0-.012.02v0l-.012.02v0l-.012.02v0l-.012.02v0l-.013.02v0l-.013.019v0l-.013.02,0,0-.012.02-.015.023v0l-.013.02,0,0-.013.02v0l-.015.023-.013.02v0l-.013.019v0l-.013.019v0l-.028.042,0,0-.013.019v0l-.014.019v0l-.013.019,0,0-.014.019,0,0-.014.019,0,0-.014.019,0,0-.015.023-.014.018,0,0-.014.019v0l-.014.019,0,0-.014.019,0,0-.014.019v0l-.014.018,0,0L804,45.2v0l-.014.019,0,0-.015.018v0l-.015.018,0,0-.015.018,0,0-.015.018,0,0-.014.018,0,0-.015.018,0,0-.015.018,0,0-.015.018,0,0-.016.018,0,0-.015.018,0,0-.015.018,0,0-.015.018,0,0-.016.018,0,0-.015.018v0l-.015.017,0,0-.016.017,0,0-.015.017,0,0-.016.017,0,0-.016.017,0,0-.016.017,0,0-.016.017,0,0-.016.017,0,0-.016.017,0,0-.016.017-.019.019v0l-.016.017-.019.019,0,0-.019.019-.016.017-.041.041-.017.016-.041.041-.017.016,0,0-.017.016,0,0-.017.016,0,0-.017.016,0,0-.017.016,0,0-.017.016,0,0-.018.016,0,0-.017.016,0,0-.018.015,0,0-.018.016,0,0-.018.016h0l-.018.015,0,0-.018.016,0,0-.018.016h0l-.018.015,0,0-.018.016h0l-.018.015h0l-.018.015,0,0-.018.015h0l-.018.015,0,0-.018.015,0,0-.019.015,0,0-.018.015,0,0-.019.015,0,0-.018.015,0,0-.019.015,0,0-.019.014,0,0-.019.015,0,0-.019.014h0l-.019.014,0,0-.019.015,0,0-.019.014h0l-.019.014,0,0-.019.014h0l-.019.014h0l-.02.014,0,0-.019.014h0l-.019.014h0l-.019.014,0,0-.02.013,0,0-.019.014,0,0-.02.014,0,0-.02.014,0,0-.02.014,0,0-.019.013h0l-.02.013,0,0-.02.013,0,0-.021.013h0l-.021.013,0,0-.02.013h0l-.02.013,0,0-.02.013h0l-.02.013,0,0-.02.013h0l-.021.012,0,0-.02.013,0,0-.021.012,0,0-.021.012h0l-.021.013,0,0-.02.012,0,0-.021.013,0,0-.02.012h0l-12.537,6.982h0l-.02.011,0,0-.02.012h0l-.02.011h0l-.02.011h0l-.02.011h0l-.02.011h0l-.02.011,0,0-.02.011h0l-.02.011h0l-.021.011h0l-.021.01,0,0-.02.01h0l-.021.01h0l-.02.01h0l-.02.01h0l-.021.01h0l-.02.01h0l-.02.01h0l-.021.009h0l-.02.01h0l-.02.01h0l-.022.01h0l-.02.01h0l-.021.009h0l-.021.01h0l-.02.009h0l-.021.009,0,0-.021.009h0l-.021.009h0l-.022.009h0l-.021.009h0l-.021.009h0l-.022.009h0l-.021.009h0l-.022.009h0l-.021.008h0l-.022.008h0l-.022.008h0l-.021.008h0l-.022.008h0l-.022.008h0l-.021.008h0l-.021.008h0l-.021.008h0l-.022.006h0l-.023.006h0l-.021.006-.026.009h-.011l-.023.006h0l-.043.013-.005,0-.044.013H788.2l-.044.013-.005,0-.044.012H788.1l-.044.012h-.006l-.044.011H788l-.044.011h-.006l-.044.01H787.9l-.044.01h-.005l-.044.01H787.8l-.044.01h-.006l-.044.01H787.7l-.044.009-.005,0-.045.009H787.6l-.044.008h-.005l-.045.008H787.5l-.045.006h-.005l-.045.006H787.4l-.045.006h-.006l-.044.006H787.3l-.045.006h-.006l-.045.005H787.2l-.045.005h-.006l-.045,0H787.1l-.045,0h-.005l-.045,0H787l-.045,0h-.005l-.045,0h-.006l-.045,0h-.005l-.045,0h-.005l-.045,0h-.005l-.045,0h-.006l-.045,0h-.473l-.045,0h-.005l-.045,0h-.005l-.045,0h-.006l-.045,0h-.006l-.045,0h-.005l-.045,0h-.005l-.045,0h-.005l-.044,0h-.006l-.045,0h-.005l-.045-.005h-.006l-.045-.005h-.005l-.045-.006h-.006l-.045-.006h-.005l-.148-.025h-.005l-.044-.009h-.006l-.045-.009h-.005l-.045-.009h-.005l-.045-.01h-.006l-.044-.01H785.1l-.045-.01h-.005l-.044-.01H785l-.044-.011h-.005l-.044-.011-.005,0-.044-.011h-.005l-.044-.012h-.005l-.044-.012h-.005l-.044-.013h-.005l-.044-.013-.005,0-.043-.013h-.005l-.043-.014h-.005l-.044-.014-.005,0-.043-.014h0l-.026-.009-.021-.008h0l-.022-.008h0l-.021-.008h0l-.021-.008h0l-.021-.008h0l-.022-.008h0l-.021-.008h0l-.021-.008h0l-.021-.008h0l-.021-.009h0l-.022-.008h0l-.021-.009h0l-.021-.009h0l-.022-.009h0l-.022-.009h0l-.021-.009h0l-.022-.009h0l-.021-.009h0l-.021-.009h0l-.021-.01h0l-.021-.01,0,0-.02-.009h0l-.02-.009h0l-.021-.01h0l-.021-.01h0l-.02-.01h0l-.021-.01h0l-.02-.01h0l-.02-.01h0l-.02-.01h0l-.022-.01h0l-.021-.011h0l-.021-.01h0L783.625,54h0l-.021-.01h0l-.02-.011h0l-.021-.011h0l-.021-.011h0l-.02-.011h0l-.02-.011h0l-.021-.011h0l-.021-.011,0,0-.02-.011h0l-.02-.011h0l-.02-.012h0l-.02-.011,0,0-.02-.012h0l-.02-.012h0l-.02-.012,0,0-.02-.012h0l-.019-.011h0L771.943,47.2h0l-.024-.014h0l-.024-.014h0l-.024-.015h0l-.025-.015h0l-.024-.014h0l-.024-.015,0,0-.024-.015h0l-.024-.015,0,0-.024-.015,0,0-.024-.015h0l-.024-.015,0,0-.024-.015,0,0-.024-.016,0,0-.024-.016,0,0-.024-.015h0l-.023-.016,0,0-.023-.016,0,0-.023-.016,0,0-.024-.016h0l-.023-.016,0,0-.023-.016h0l-.023-.016,0,0-.023-.016h0l-.023-.016h0l-.023-.016,0,0-.023-.017,0,0-.023-.016,0,0-.023-.017,0,0L771.2,46.7l0,0-.021-.017,0,0-.022-.016,0,0-.023-.017,0,0-.021-.017h0l-.023-.017,0,0-.021-.017,0,0-.021-.017,0,0-.022-.017,0,0-.021-.017,0,0-.022-.018,0,0-.021-.018,0,0-.022-.017,0,0-.022-.018,0,0-.021-.018,0,0-.02-.018h0l-.021-.018,0,0-.02-.018,0,0-.021-.018,0,0-.02-.018,0,0-.02-.018,0,0-.022-.018,0,0-.02-.018,0,0-.02-.018,0,0-.021-.018-.045-.045-.021-.019,0,0-.02-.018,0,0-.02-.018,0,0-.02-.019,0,0-.019-.018-.13-.13-.018-.019,0,0-.019-.02-.045-.045-.018-.02-.024-.024-.018-.02,0,0-.018-.02,0,0-.018-.02,0,0-.018-.02,0,0-.018-.02,0,0-.018-.02,0,0-.018-.02,0,0-.017-.02v0l-.018-.022,0,0-.018-.02,0,0-.017-.02v0l-.018-.02v0l-.017-.02,0,0-.017-.022,0,0-.017-.022,0,0-.017-.022v0l-.017-.02,0,0-.017-.02,0,0-.017-.021,0,0-.016-.021,0,0-.017-.022,0,0-.016-.022,0,0-.017-.023,0,0-.016-.022,0,0-.016-.022,0,0-.016-.023,0,0-.016-.022,0,0-.016-.022,0,0-.016-.023v0l-.016-.021,0,0-.015-.023,0,0-.015-.023,0,0-.016-.022v0l-.016-.022,0,0-.016-.023v0l-.015-.023,0,0-.015-.023v0l-.015-.023,0,0-.015-.023,0,0-.015-.023,0,0-.015-.023,0,0-.015-.023v0l-.015-.023v0l-.017-.026-.015-.024v0l-.015-.024v0l-.014-.023v0l-.014-.024v0l-.014-.024,0,0-.014-.023v0l-.014-.024,0,0-.014-.023v0l-.013-.023,0,0-.014-.024,0,0-.014-.024v0l-.014-.024v0l-.013-.024v0l-.013-.024v0l-.014-.024v0l-.013-.024v0l-.014-.024,0,0-.013-.024v0l-.013-.024,0,0-.013-.024v0l-.012-.025v0l-.013-.024v0l-.013-.024v0l-.013-.025-.013-.026v0l-.013-.024-.013-.026v0L769,44.039v0l-.012-.025v0l-.012-.025v0l-.012-.025v0l-.012-.025v0l-.012-.025,0,0-.012-.025v0l-.011-.025,0,0-.011-.025v0l-.011-.025v0l-.011-.025v0l-.011-.025v0l-.011-.025v0l-.011-.025v0l-.011-.025v0l-.011-.026v0l-.01-.025v0l-.011-.026v0l-.011-.026v0l-.011-.026v0l-.01-.026v0l-.01-.025v0l-.01-.026v0l-.01-.025v0l-.01-.026v0l-.01-.026v0l-.01-.026v0l-.01-.025v0l-.01-.026v0l-.01-.026v0l-.01-.026v0l-.01-.026v0l-.01-.026v0l-.009-.026v0l-.009-.026v0l-.018-.055v0L768.585,43v0l-.008-.026-.011-.032-.008-.026v0l-.008-.026v0l-.009-.027v0l-.008-.026v0l-.007-.027v0l-.008-.026v0l-.008-.026v0l-.008-.026v0l-.008-.027v0l-.008-.027v0l-.006-.026v0l-.008-.027v0l-.006-.027v0l-.006-.027v0l-.006-.027v0l-.006-.027v0l-.007-.027v0l-.006-.027v0l-.006-.027v0l-.007-.027v0l-.007-.027v0l-.006-.027v0l-.005-.027v-.011l-.005-.027v0l-.005-.027v0l-.005-.027v0l-.005-.027v0l-.005-.027v0l-.005-.027v0l-.005-.027v0l0-.027v0l0-.027v0l0-.027v0l0-.028v0l0-.028v0l0-.028v0l0-.027v0l0-.027v0l0-.028v0l0-.028v0l0-.028V41.7l0-.028v0l0-.027v0l0-.028v0l0-.027v0l0-.028v0l0-.028v0l0-.028v0l0-.028v0l0-.028v0l0-.028v0l0-.027v0l0-.028v0l0-.028v0l0-.028v0l0-.028v-.034l0-.028v-.066l0-.028v-.263l0-13.214v-.071l0-.032v-.039l0-.033V27.4l0-.032v0l0-.032v0l0-.032v0l0-.032v0l0-.032v0l0-.032v0l0-.032v0l0-.032v0l0-.032v0l0-.032v0l0-.032v0l0-.032v0l0-.032v0l0-.032v0l0-.032v0l0-.032v0l0-.032v0l0-.032v0l0-.031v0l0-.031v0l0-.031v0l.005-.032v0l0-.031v0l0-.032v0l0-.032v0l0-.031v0l.005-.031v0l.005-.031v0l.005-.031v0l.005-.031v0l.005-.032v0l.006-.031v0l.005-.031v0l.005-.031v0l.006-.031v0l.006-.031v0l.006-.031v0l.006-.031v0l.007-.031v0l.006-.031v0l.008-.031v0l.007-.031v0l.006-.031v0l.008-.031v0l.008-.031v0l.008-.031v0l.008-.031v0l.008-.031v0l.008-.031v0l.008-.031v0l.009-.031v0l.009-.03v0l.009-.031v0l.009-.03v0l.009-.031v0l.009-.03v0l.009-.031v0l.009-.03v0l.009-.031v0l.01-.03v0l.01-.03v0l.01-.03v0l.01-.03v0l.01-.03v0l.011-.03v0l.01-.03v0l.011-.03v0l.01-.03v0l.01-.03v0l.01-.03v0l.011-.03v0l.011-.03v0l.011-.03v0l.011-.029v0l.012-.03v0l.011-.029v0l.011-.03v0l.011-.03v0l.011-.03v0l.012-.03v0l.012-.029v0l.012-.029v0l.012-.029v0l.012-.029v0l.012-.029v0l.013-.03v0l.012-.029,0,0,.013-.029v0l.013-.029v0l.013-.029v0l.013-.029v0l.013-.029v0l.013-.029v0l.013-.029v0l.013-.029v0l.013-.028v0l.029-.058v0l.014-.029v0l.029-.058v0l.014-.029.015-.03,0,0,.014-.029.015-.03v0l.015-.028.015-.03v0l.015-.028v0l.015-.028v0l.015-.028v0l.015-.028,0,0,.015-.027v0l.015-.028,0,0,.015-.027v0l.016-.028v0l.016-.028v0l.015-.028,0,0,.016-.028v0l.016-.027,0,0,.016-.027v0l.016-.027,0,0,.016-.027v0l.016-.027v0l.016-.027,0,0,.016-.027v0l.016-.027v0l.017-.027v0l.017-.027,0,0,.016-.027,0,0,.017-.027v0l.017-.027,0,0,.017-.027v0l.017-.026,0,0,.017-.026v0l.018-.026v0l.019-.029.017-.027,0,0,.018-.026,0,0,.018-.026,0,0,.018-.026v0l.018-.026,0,0,.018-.026,0,0,.018-.025v0l.018-.026,0,0,.019-.026v0l.018-.025v0l.019-.025,0,0,.018-.026,0,0,.019-.026v0l.019-.025,0,0,.019-.025,0,0,.019-.026v0l.019-.025,0,0,.019-.026,0,0,.02-.025,0,0,.019-.025,0,0,.02-.025v0l.02-.025,0,0,.02-.025,0,0,.02-.025,0,0,.021-.024,0,0,.02-.025,0,0,.02-.024,0,0,.02-.024,0,0,.021-.024,0,0,.021-.025,0,0,.02-.024v0l.022-.024,0,0,.022-.024,0,0,.021-.024v0l.021-.024,0,0,.022-.024h0l.022-.023,0,0,.021-.024,0,0,.021-.023.027-.027.023-.024.027-.027.023-.024,0,0,.021-.023.124-.124h0l.049-.049.024-.023,0,0,.024-.022,0,0,.024-.022,0,0,.024-.022,0,0,.024-.022,0,0,.024-.022,0,0,.024-.022,0,0,.024-.022,0,0,.024-.022,0,0,.024-.02,0,0,.024-.02,0,0,.024-.022,0,0,.025-.02,0,0,.025-.02,0,0,.024-.02,0,0,.025-.02,0,0,.024-.022,0,0,.025-.02,0,0,.025-.02,0,0,.025-.02,0,0,.026-.02h0l.025-.019,0,0,.026-.019,0,0,.025-.02,0,0,.026-.02,0,0,.025-.019h0l.026-.019,0,0L771.62,21l0,0,.026-.019,0,0,.026-.019,0,0,.026-.019,0,0,.026-.019h0l.026-.018h0l.026-.019,0,0,.026-.019,0,0,.026-.019,0,0,.027-.018,0,0,.026-.018,0,0,.027-.018h0l.027-.018,0,0,.027-.018h0l.026-.018,0,0,.027-.018,0,0,.027-.018h0l.027-.018,0,0,.027-.017h0l.027-.017,0,0,.027-.017,0,0,.028-.018h0l.028-.017h0l.027-.017h0l.028-.017,0,0,.028-.017h0l.028-.017,0,0,.028-.017h0l.027-.016h0l10.5-6.29.024-.013,0,0,.024-.013,0,0,.024-.013h0l.024-.013h0l.024-.013.026-.013h0l.049-.025,0,0,.024-.013h0l.024-.012h0l.024-.012h0l.025-.012.026-.013,0,0,.025-.011,0,0,.025-.012,0,0,.024-.011h0l.025-.012h0l.025-.011h0l.024-.012h0l.025-.011h0l.025-.012h0l.025-.012h0l.025-.011h0l.025-.011h0l.025-.011h0l.025-.011h0l.025-.011h0l.025-.01h0l.025-.011h0l.025-.01h0l.025-.011h0l.025-.01h0l.025-.011h0l.025-.01h0l.025-.009h0l.025-.01h0l.025-.009h0l.025-.009h0l.025-.01h0l.025-.01h0l.025-.009.029-.01h0l.025-.009h0l.025-.009h0l.025-.009h0l.026-.009h0l.025-.009h0l.025-.008h0l.025-.008h0l.025-.009h0l.026-.008h0l.026-.008h0l.025-.008h0l.026-.008h0l.026-.008h0l.025-.008h0l.026-.006h0l.026-.006h0l.026-.008h0l.025-.006h0l.026-.006h0l.026-.006h0l.026-.006h0l.026-.006h0l.025-.006h0l.026-.006h0l.026-.006h0l.026-.006h0l.026-.006h0l.026-.005h0l.026-.005h0l.026-.006h0l.026-.005h0l.026-.005h0l.026-.005h0l.026-.005h0l.026-.005h0l.026,0h0l.026,0h0l.026,0h0l.026,0h0l.026,0h0l.026,0h0l.026,0h0l.026,0h0l.026,0h0l.026,0h0l.026,0h0l.026,0h0l.026,0h0l.027,0h0l.026,0h0l.026,0h0l.026,0h0l.027,0h0l.026,0h0l.026,0h0l.026,0h0l.026,0h0l.026,0h0l.026,0h0l.026,0h0l.026,0h0l.026,0h0l.026,0h0l.027,0h0l.026,0h0l.026,0h.091l.026,0h.348Zm-.024,2.9h-.069l-.241.015-.034,0-.034,0-.172.022-.017,0-.017,0-.052.01-.017,0-.189.035-.1.026-.017,0-.069.017-.016,0-.052.013-.017.005-.016.005-.016,0-.069.022-.017,0-.016.005-.052.016-.016.005-.034.011-.048.016-.016.006-.034.013-.194.077-.064.03-.015.008-.113.053-.016.009-.032.015-.016.009-.032.015-.016.009-.015.009-.015.008-.015.009-.016.009-.045.026-.032.017-.03.017-.016.009-.015.009-.017.01L773.664,23.11l-.019.014-.019.013-.019.014-.019.013-.1.07-.018.014-.019.014-.018.014-.039.028-.018.014-.019.014-.018.015-.036.028-.018.015-.037.028-.037.03-.017.015-.018.015-.052.045-.017.016-.017.015-.018.015-.017.016-.052.045-.069.065-.016.016-.034.032-.081.081-.016.017-.032.032-.032.034-.03.034-.016.017-.015.017-.032.034-.015.016-.166.189-.014.018-.03.037-.014.017-.014.018-.015.018-.014.017-.056.073-.013.018-.014.018-.013.018-.056.073-.013.019-.013.018-.014.018-.142.213-.095.155-.012.02-.024.039-.011.019-.024.041-.011.019-.012.02-.086.163-.048.1-.01.022-.029.061-.01.022-.019.041-.01.022-.01.02-.017.043-.009.02-.026.065-.009.02-.026.065-.015.043-.026.065-.008.022-.009.022-.015.043-.008.023-.03.086-.008.023-.008.022-.007.023-.008.022-.006.022-.013.045-.007.022-.013.045-.011.045-.006.023-.005.023-.006.023-.043.181,0,.023-.005.023,0,.023-.011.045-.009.045-.005.023,0,.024-.021.113-.01.068,0,.024,0,.023-.016.113,0,.024,0,.024,0,.023,0,.024,0,.023,0,.047,0,.023-.015.166,0,.047,0,.024,0,.095v.141l0,13.086v.018l.006.115v.018l0,.039,0,.055v.019l.009.073,0,.039,0,.018,0,.019,0,.037.006.037,0,.019,0,.018,0,.019.019.11,0,.019.016.091,0,.018.009.034,0,.019.017.073,0,.017,0,.018,0,.017,0,.018.005.018,0,.018.011.037,0,.018.005.017.011.037.005.017.027.091.005.017.011.037.005.017.013.034.006.018.005.017.006.017.006.018.026.069.008.017.007.017.008.017.019.052.045.1.006.017.008.017.007.016.015.034.009.017.015.032.017.034.008.016.017.032.009.017.017.032.009.017.06.113.019.032.017.032.029.048.01.015.029.048.01.015.011.015.029.048.01.015.011.015.011.016.011.015.011.016.01.015.01.016.075.105.012.015.011.015.011.014.012.015.011.015.011.014.012.014.012.015.024.028.011.014.024.028.011.015.071.084.013.014.024.028.013.014.012.014.026.028.012.014.013.013.013.014.012.013.013.013.039.042.052.052.014.013.026.026.014.013.013.013.014.013.013.013.014.012.014.013.014.012.028.026.084.071.015.013.015.012.056.047.015.012.042.035.015.012.014.011.015.012.045.032.03.024.015.011.015.012.03.022.016.012.03.022.032.022.015.011.015.01.016.01.015.01.016.011.015.01.016.011.016.01.016.011.1.058.018.011,11.438,6.679.026.013.012.006.065.032.013.005.013.006.142.059.014.005.052.022.026.009.013.005.014.005.013.005.026.009.014,0,.039.013.012,0,.028.009.081.026.081.023.134.032.027.005.027.006.056.011.027,0,.028,0,.081.013.028,0,.027,0,.028,0,.054.006.028,0,.027,0,.028,0,.027,0,.028,0,.112,0h.194l.056,0h.027l.084,0,.028,0,.027,0,.028,0,.027,0,.028,0,.027,0,.056-.006.027,0,.028,0,.107-.017.056-.011.027-.005.027-.006.056-.013.027-.006.028-.006.134-.038.028-.009.013,0,.014,0,.09-.03.013-.005.026-.009.013-.005.013,0,.013-.005.026-.009.014,0,.013,0,.116-.048.026-.013.026-.011.052-.026.013-.005.039-.019.013-.005.026-.013.012-.006.039-.019.013-.008.012-.006.013-.006.013-.008.014-.008L800.7,44.259l.013-.009.026-.015.012-.008.012-.009.013-.009.024-.017.026-.017.012-.009.012-.008.039-.026.035-.026.012-.01.013-.009.012-.01.011-.009.012-.01.012-.009.036-.029.011-.009.011-.01.047-.039.011-.01.024-.019.022-.019.012-.01.021-.019.011-.011.022-.019.012-.01.043-.039.011-.011.011-.01.074-.074.068-.075.011-.012.048-.054.01-.012.01-.011.01-.012.01-.011.01-.012.009-.011.019-.022.009-.012.01-.011.01-.012.017-.022.026-.035.01-.012.052-.071.009-.013.026-.035.015-.024.009-.013.009-.012.008-.012.009-.013.009-.012.008-.013.009-.013.023-.035.008-.013.009-.013.008-.012.015-.026.013-.026.008-.012L801.9,43l.015-.026.007-.013.008-.013.032-.065.006-.014.013-.026.006-.014.013-.026.006-.014.005-.013.006-.013.006-.014.005-.014.005-.013.005-.014.005-.013.007-.013.005-.014.006-.014.005-.013.006-.014.011-.028.006-.013.005-.013.011-.028.005-.013.016-.042,0-.014.011-.028.005-.013.011-.028.009-.028.005-.014,0-.014.005-.014.013-.042.005-.015.013-.042,0-.013,0-.014,0-.015,0-.014,0-.013,0-.015,0-.015,0-.014,0-.015,0-.014,0-.015,0-.014,0-.015.019-.084,0-.015,0-.014.01-.045,0-.014,0-.03,0-.014,0-.03,0-.028,0-.03,0-.014,0-.03,0-.014.007-.045,0-.014,0-.016v-.015l0-.014v-.014l0-.015.006-.09v-.031l0-.06v-.075l-.01-15.01,0-.028v-.027l0-.039,0-.014v-.042l0-.028v-.013l0-.014,0-.013,0-.028-.015-.09,0-.012-.005-.028-.005-.027-.005-.026-.006-.027-.006-.026-.005-.026-.013-.054-.007-.026-.03-.1-.017-.052L802.2,25.5l-.009-.026-.01-.026-.009-.025-.008-.026-.009-.025-.039-.1-.011-.025-.01-.025-.021-.049-.011-.024-.012-.025-.024-.047-.012-.025L802,25.035l-.012-.025-.039-.071-.013-.023-.013-.024-.014-.024-.042-.068-.014-.024-.075-.113-.015-.022-.065-.086-.017-.022-.016-.021-.016-.022-.017-.02-.017-.022-.052-.061-.037-.041-.037-.039-.018-.02-.055-.058-.076-.076-.061-.055-.019-.018-.02-.018-.02-.017-.021-.018-.01-.009-.011-.01-.054-.043-.01-.009-.054-.043-.021-.015-.011-.009-.011-.008-.012-.008L801,23.868l-.012-.009-.011-.008-.012-.009-.011-.009-.024-.015-.011-.008-.012-.008-.011-.008-.059-.038-.011-.008-.012-.008-.012-.006-.047-.03-.012-.006-.024-.015-.013-.008-12.447-7.113-.1-.045-.015-.008-.048-.023-.016-.006-.016-.008-.016-.006-.016-.008-.016-.006L788,16.45l-.129-.052-.017-.005-.064-.022-.034-.011-.081-.027-.017-.005-.017,0-.017-.005-.016-.005-.034-.011-.017,0-.017-.005-.016,0-.017,0-.016-.005-.017,0-.017,0-.034-.009-.017,0-.017,0-.016,0-.016,0-.017,0-.034-.006-.016,0-.017,0-.017,0-.017,0-.016,0-.086-.016-.017,0-.017,0-.017,0-.017,0-.017,0-.016,0-.034,0-.034-.006-.12-.015h-.017l-.016,0h-.017l-.052-.006h-.017l-.017,0-.034,0h-.017l-.1-.006h-.017l-.034,0h-.1Z" transform="translate(-682.234 -2.003)" fill="#00a88a" fill-rule="evenodd"/>
    <path id="Tracé_21" data-name="Tracé 21" d="M1199.061,52.4V39.248a4.746,4.746,0,0,0-2.391-4.12l-12.223-6.985a5.658,5.658,0,0,0-5.718.06l-10.321,6.19a7.215,7.215,0,0,0-3.5,6.186V53.432a6.033,6.033,0,0,0,2.989,5.209l11.259,6.582a4.9,4.9,0,0,0,4.86.051l12.467-6.943a5.019,5.019,0,0,0,2.577-4.386V52.4Z" transform="translate(-1036.252 -14.644)" fill="#ebb951" fill-rule="evenodd"/>
    <path id="Tracé_22" data-name="Tracé 22" d="M1169.2,13.694h.46l.026,0h.032l.026,0h0l.026,0h0l.026,0h0l.026,0h0l.026,0h0l.026,0h0l.026,0h0l.026,0h0l.026,0h0l.026,0h0l.026,0h0l.026,0h0l.026,0h0l.027,0h0l.026,0h0l.026,0h0l.026,0h0l.026,0h0l.026,0h0l.026,0h0l.026,0h0l.026,0h0l.026,0h0l.026,0h0l.026,0h0l.026,0h0l.026,0h0l.026,0h0l.026.005h0l.026,0h0l.026.005h0l.026.005h0l.026.005h0l.026.005h0l.026.005h0l.026.005h0l.026.005h0l.026.006h0l.026.005h0l.025.006h0l.026.006h0l.026.006h0l.025.006h0l.025.006h0l.026.006h0l.025.006h0l.026.008h0l.026.008h0l.026.008h0l.026.008h0l.025.008h0l.025.008h0l.025.008h0l.025.008h0l.025.008h0l.025.009h0l.025.008.029.01h0l.058.019.025.009h0l.025.009h0l.025.009h0l.025.009h0l.025.009h0l.025.009h0l.025.009h0l.025.01h0l.025.009h0l.025.01h0l.025.01h0l.025.01h0l.025.01h0l.025.01h0l.025.01h0l.025.01h0l.025.01h0l.025.01,0,0,.025.01h0l.025.01h0l.025.011h0l.025.011h0l.025.011h0l.024.011h0l.025.012h0l.025.011h0l.024.011.026.013h0l.024.012h0l.024.012h0l.025.012,0,0,.025.012.026.013h0l.024.012h0l.024.012h0l.024.012h0l.025.013h0l.024.012,0,0,.024.013h0l.024.013,0,0,.024.013h0l.024.013,0,0,.024.013,0,0,.024.013h0l.024.013,0,0,.024.013,0,0,.023.014,12.247,7,.019.012h0l.02.012h0l.019.012h0l.019.012h0l.02.012h0l.019.012h0l.019.012,0,0,.023.015.019.012h0l.019.013h0l.019.012h0l.019.012,0,0,.019.013h0l.018.013.023.015h0l.02.012,0,0,.018.013,0,0,.018.013h0l.018.013,0,0,.018.013h0l.018.013,0,0,.018.013,0,0,.018.013,0,0,.018.014,0,0,.018.013h0l.018.013,0,0,.018.013,0,0,.018.013h0l.018.013,0,0,.018.014h0l.018.014,0,0,.017.014h0l.018.014,0,0,.018.014,0,0,.017.013h0l.017.014,0,0,.017.014,0,0,.018.015,0,0,.017.014,0,0,.017.014,0,0,.017.015,0,0,.017.015,0,0,.017.015,0,0,.033.029,0,0,.033.029,0,0,.034.03,0,0,.033.03,0,0,.033.03,0,0,.033.03,0,0,.033.031,0,0,.032.031,0,0,.032.031,0,0,.032.031.041.041.031.032,0,0,.031.032,0,0,.03.032,0,0,.03.032,0,0,.03.033,0,0,.03.033,0,0,.03.033,0,0,.029.034,0,0,.029.033,0,0,.029.033,0,0,.029.034,0,0,.029.034,0,.005.028.034,0,0,.028.035,0,0,.028.035,0,.005.027.035,0,0,.027.035,0,.005.026.035,0,0,.026.035,0,0,.026.037,0,.005.025.037,0,0,.026.037,0,.005.025.037,0,0,.025.038,0,.005.024.037,0,.005.024.038,0,0,.024.038,0,.005.024.038,0,.005.024.039,0,0,.023.039,0,.005.023.039.026.043,0,.005.022.04,0,.005.021.039,0,.005.021.039,0,.005.02.039,0,.005.021.04,0,.005.02.04,0,.005.02.04,0,.005.021.04,0,.005.019.04,0,.005.02.04,0,.005.018.04,0,.005.018.041,0,.005.018.041,0,.005.017.041,0,.005.017.041,0,.005.017.041,0,.005.016.042,0,.005.016.042,0,.005.016.042,0,.006.015.042,0,.005.015.042,0,.005.015.042,0,.005.015.042v.005l.014.042,0,.005.014.042,0,.005.014.043v.005l.013.042v.005l.014.043v.005l.012.043,0,.005.012.043v.005l.012.043,0,.005.012.043V25.4l.012.044v.006l.011.043,0,.006.011.043v.006l.01.044V25.6l.01.043v.006l.01.044V25.7l.009.044v.006l.018.094v.005l0,.023v0l0,.022v0l0,.023v0l0,.022v0l0,.023v0l0,.023v0l0,.023v0l0,.023v0l0,.023v0l0,.023v0l0,.023v0l0,.023v0l0,.023v0l0,.023v0l0,.023v0l0,.022v0l0,.023v0l0,.023v0l0,.023v0l0,.023v0l0,.023v0l0,.023v0l0,.023v0l0,.023v0l0,.023v0l0,.023v.028l0,.023v.081l0,.023V26.9l-.01,15.122,0,.024v.031l0,.025v0l0,.024v0l0,.024v0l0,.024v0l0,.025v0l0,.025v0l0,.024v0l0,.024v0l0,.024v0l0,.025v0l0,.024v0l0,.025v0l0,.024v0l0,.024v0l0,.024v0l0,.024v0l0,.025v0l0,.024v0l0,.024v0l0,.024v0l0,.024v0l0,.024v0l0,.024v0l0,.025v0l0,.024v0l0,.024v0l0,.024v0l0,.024v0l0,.024v0l0,.024v0l0,.023v0l-.005.024v0l-.005.024v0l0,.024v0l-.005.023v0l-.005.024v0l-.005.024v0l0,.024v0l-.005.024v0l-.005.024v0l-.005.024v0l-.005.024v0l-.005.024v0l-.005.023v0l-.005.023v0l-.006.024v0l-.006.023v0l-.006.024v0l-.006.023v0l-.007.023v0l-.007.023v0l-.006.023v0l-.006.023v0l-.006.023v0l-.008.024v0l-.008.024v0l-.007.023v0l-.016.048v0l-.025.074v0l-.007.022-.027.081-.009.023v0l-.009.023v0l-.009.022v0l-.009.023v0l-.009.026-.009.022v0l-.009.023v0l-.009.023v0l-.009.023v0l-.009.022v0l-.009.023v0l-.008.023v0l-.01.022v0l-.009.022v0l-.009.023v0l-.01.021v0l-.008.022v0l-.01.022v0l-.01.022v0l-.01.022v0l-.01.022v0l-.01.022v0l-.01.022v0l-.01.022v0l-.01.022-.012.024v0l-.01.022-.012.024v0l-.011.022v0l-.012.024-.011.02-.023.047,0,0-.011.022,0,0-.012.024-.011.02v0l-.011.02v0l-.011.02,0,0-.011.02,0,0-.011.02v0l-.012.022v0l-.012.02,0,0-.012.02v0l-.011.02,0,0-.012.02v0l-.012.02v0l-.012.02v0l-.012.02,0,0-.012.02,0,0-.013.02v0l-.012.02,0,0-.012.02v0l-.012.02v0l-.028.042v0l-.012.019,0,0-.013.02,0,0-.013.02v0l-.013.019,0,0-.013.019,0,0-.013.02,0,0-.028.042v0l-.013.019v0l-.013.02v0l-.013.019,0,0-.013.019v0l-.014.019v0l-.014.019v0l-.014.019v0l-.014.019v0l-.014.019,0,0-.014.019,0,0-.014.018,0,0-.014.018,0,0-.015.019,0,0-.014.019,0,0-.014.019,0,0-.014.019,0,0-.014.019,0,0-.014.018,0,0-.015.019v0l-.014.018,0,0-.015.019,0,0-.015.018,0,0-.015.018,0,0-.015.018,0,0-.015.018,0,0-.015.017v0l-.015.018,0,0-.015.018,0,0-.015.018,0,0-.015.017,0,0-.015.017,0,0-.015.018,0,0-.016.018,0,0-.016.017,0,0-.016.017,0,0-.016.017,0,0-.016.018,0,0-.016.018v0l-.016.017,0,0-.016.017,0,0-.016.017-.021.022-.016.017,0,0-.016.017,0,0-.017.016-.06.06-.017.016-.021.022-.017.016h0l-.017.016-.021.022-.017.016,0,0-.017.016,0,0-.017.016,0,0-.018.016,0,0-.017.016,0,0-.018.016,0,0-.017.016h0l-.017.016,0,0-.017.016,0,0-.018.015,0,0-.018.016,0,0-.018.016,0,0-.018.016,0,0-.018.015,0,0-.018.016,0,0-.018.015,0,0-.018.015,0,0-.018.015,0,0-.018.015,0,0-.018.015,0,0-.019.015h0l-.018.015,0,0-.019.015,0,0-.02.014,0,0-.019.014,0,0-.02.015,0,0-.019.014,0,0-.018.014h0l-.019.014,0,0-.019.014,0,0-.021.014,0,0-.019.014h0l-.02.014,0,0-.019.014h0l-.02.013,0,0-.02.014h0l-.019.014,0,0-.02.014,0,0-.021.014h0l-.02.013,0,0-.02.014,0,0-.02.014,0,0-.02.014h0l-.02.014h0l-.021.014,0,0-.02.013,0,0-.021.013,0,0-.02.013h0l-.02.012,0,0-.02.013h0l-.02.013,0,0-.021.013h0l-.02.013h0l-.021.012h0l-.021.012h0l-.021.012h0l-.021.012h0l-.021.012h0l-.022.012,0,0-.02.012h0l-12.537,6.982h0l-.02.011h0l-.02.012,0,0-.02.011,0,0-.021.011h0l-.02.011h0l-.02.011h0l-.021.01h0l-.02.01h0l-.02.011,0,0-.022.01-.024.012h0l-.02.01h0l-.02.01h0l-.021.01h0l-.022.01,0,0-.021.01h0l-.021.01h0l-.021.01h0l-.022.01h0l-.02.009h0l-.02.009h0l-.021.01h0l-.02.009h0l-.022.009h0l-.021.01h0l-.022.009h0l-.021.009h0l-.021.009h0l-.021.009h0l-.021.009h0l-.02.009h0l-.021.009h0l-.022.008h0l-.021.008h0l-.021.009h0l-.021.008h0l-.021.008h0l-.021.008-.026.009h0l-.022.008h0l-.021.008h0l-.021.008h0l-.021.008h0l-.021.008h0l-.021.006h0l-.021.006h0l-.021.008-.023.006h0l-.023.006h0l-.043.013-.005,0-.044.013-.005,0-.044.012h-.005l-.044.012h-.006l-.044.012h-.005l-.044.012h-.005l-.044.011h-.005l-.044.011-.005,0-.044.01h-.005l-.044.01h-.007l-.044.01h-.005l-.044.009h-.005l-.044.009h-.005l-.045.009h-.005l-.045.009h-.005l-.044.008h-.005l-.045.006-.052.009h-.005l-.045.006h-.005l-.045.006h-.005l-.045.006h-.005l-.044.005h-.005l-.045.005h-.007l-.045,0h-.006l-.045,0h-.006l-.045,0h-.005l-.045,0h-.005l-.045,0h-.005l-.045,0h0l-.045,0h-.006l-.045,0h-.005l-.045,0h-.461l-.045,0h-.005l-.045,0h-.005l-.045,0h-.005l-.045,0h-.005l-.045,0h-.006l-.045,0h-.005l-.045,0h-.007l-.045,0h-.005l-.045,0h-.005l-.045-.005h-.005l-.045-.005h-.005l-.045-.005h-.005l-.045-.006h-.005l-.045-.006h-.006l-.045-.006h-.006l-.044-.006h-.005l-.044-.008h-.005l-.045-.008H1168l-.045-.009h-.005l-.045-.009h-.005l-.044-.01h-.006l-.044-.009-.006,0-.045-.01h-.005l-.044-.01h-.005l-.044-.01h-.006l-.044-.011h-.005l-.044-.011-.005,0-.044-.012h-.005l-.044-.012h-.005l-.044-.012-.005,0-.044-.013-.005,0-.044-.013-.005,0-.044-.013-.005,0-.043-.014-.006,0-.043-.014h0l-.026-.009-.021-.008h0l-.021-.008h0l-.021-.008h0l-.021-.008h0l-.021-.008h0l-.021-.008h0l-.021-.009h0l-.021-.008h0l-.021-.008h0l-.022-.008h0l-.021-.009h0l-.021-.008h0l-.021-.009h0l-.022-.009h0l-.021-.009h0l-.021-.009h0l-.021-.009h0l-.021-.009h0l-.021-.009h0l-.022-.009h0l-.021-.009h0l-.021-.01h0l-.02-.01h0l-.022-.01h0l-.02-.01h0l-.022-.009h0l-.02-.01h0l-.021-.01h0l-.02-.01h0l-.021-.01,0,0-.021-.01h0l-.045-.023,0,0-.02-.011-.026-.013-.021-.011h0l-.021-.011h0l-.021-.011h0l-.021-.011h0l-.02-.011h0l-.02-.011h0l-.021-.011h0l-.021-.012h0l-.02-.011h0l-.02-.012h0l-.02-.011,0,0-.021-.012,0,0-.02-.012h0l-.02-.012h0l-.02-.012h0l-.02-.011h0l-11.5-6.726,0,0-.024-.015,0,0-.023-.015h0l-.024-.016h0l-.024-.015h0l-.024-.016h0l-.023-.015,0,0-.024-.016,0,0-.024-.015,0,0-.024-.015,0,0-.023-.016,0,0-.023-.015h0l-.023-.016,0,0-.023-.016,0,0-.023-.016,0,0-.023-.016,0,0-.023-.016h0l-.023-.016h0l-.021-.016,0,0-.021-.017,0,0-.021-.016h0l-.023-.017,0,0-.022-.017h0l-.021-.017h0l-.021-.017h0l-.021-.017,0,0-.022-.017,0,0-.021-.017,0,0-.021-.017h0l-.021-.018,0,0-.021-.017,0,0-.022-.017h0l-.021-.018,0,0-.02-.017,0,0-.02-.018,0,0-.022-.018,0,0-.021-.018,0,0-.02-.018h0l-.021-.018h0l-.021-.018h0l-.02-.018,0,0-.02-.018,0,0-.02-.018h0l-.02-.019,0,0-.019-.018,0,0-.02-.019,0,0-.021-.019,0,0-.021-.018-.086-.086h0l-.086-.086-.018-.019-.021-.022h0l-.018-.02,0,0-.019-.02,0,0-.019-.02-.024-.024-.018-.02v0l-.019-.02,0,0-.018-.02,0,0-.018-.019,0,0-.018-.02,0,0-.018-.02,0,0-.018-.02,0,0-.018-.02,0,0-.017-.02,0,0-.018-.022,0,0-.018-.02,0,0-.018-.02,0,0-.017-.02v0L1152.7,46l0,0-.017-.022,0,0-.017-.02v0l-.017-.022,0,0-.017-.02,0,0-.017-.022,0,0-.017-.022,0,0-.017-.022v0l-.016-.022,0,0-.016-.022,0,0-.017-.022,0,0-.016-.022,0,0-.017-.022v0l-.016-.022v0l-.017-.022v0l-.016-.022,0,0-.016-.023v0l-.016-.022v0l-.016-.023,0,0-.016-.023,0,0-.016-.023,0,0-.016-.023v0l-.015-.023,0,0-.015-.023v0l-.015-.023,0,0-.015-.022v0l-.015-.023v0l-.015-.023v0l-.032-.048v0l-.015-.024,0,0-.015-.023v0l-.015-.023v0l-.015-.023,0,0-.015-.023v0l-.014-.023v0l-.014-.023,0,0-.014-.024,0,0-.014-.023v0l-.014-.023,0,0-.014-.023v0l-.014-.024v0l-.014-.023,0,0-.014-.024v0l-.013-.024v0l-.014-.024,0,0-.013-.024v0l-.014-.024v0l-.014-.024v0l-.013-.024,0,0-.013-.024v0l-.013-.024v0l-.013-.025v0l-.013-.024v0l-.013-.024v0l-.012-.025-.014-.028-.013-.024v0l-.013-.025v0l-.012-.025v0l-.012-.025v0l-.013-.025v0l-.012-.025v0l-.012-.025-.013-.026v0l-.012-.025v0l-.012-.025v0l-.012-.025v0l-.011-.025v0l-.011-.025v0l-.012-.025v0l-.011-.026v0l-.011-.025v0l-.011-.026v0l-.011-.025v0l-.011-.025v0l-.011-.025v0l-.011-.026v0L1151.5,44v0l-.011-.026v0l-.01-.025v0l-.01-.026v0l-.011-.026v0l-.01-.026v0l-.01-.026v0l-.01-.026v0l-.01-.026v0l-.01-.026v0l-.01-.026v0l-.018-.055v0l-.01-.026-.019-.058v0l-.01-.029-.009-.027v0l-.009-.026v0l-.008-.026v0l-.008-.026-.02-.061-.008-.027v0l-.007-.027v0l-.008-.026v0l-.01-.029-.008-.027v0l-.008-.026v0l-.007-.026v0l-.006-.026v0l-.008-.027v0l-.007-.026v0l-.008-.027v0l-.006-.026v0l-.006-.027v0l-.006-.027v0l-.006-.027v0l-.005-.027v0l-.006-.027v0l-.006-.027v0l-.006-.027v0l-.006-.027v0l-.006-.027v0l-.005-.027v0l-.005-.027v0l-.005-.028v0l-.005-.027v0l-.005-.027v0l-.005-.027v0l-.005-.027v0l-.005-.027v0l0-.027v0l0-.027v0l-.005-.028v0l0-.028v0l0-.027v0l0-.028v0l0-.027v0l0-.027v0l0-.028v0l0-.028v0l0-.027v0l0-.028v0l0-.028v0l0-.028v0l0-.028v0l0-.028v0l0-.028v0l0-.028v0l0-.028v0l0-.028v0l0-.028v0l0-.028v0l0-.028v0l0-.027,0-.028v0l0-.028v0l0-.028v0l0-.028v0l0-.028v0l0-.028v-.322l0-13.2v-.138l0-.032v-.038l0-.032v0l0-.032v0l0-.032v0l0-.032v0l0-.033v0l0-.032v0l0-.032v0l0-.032v0l0-.032v0l0-.032v0l0-.032v0l0-.032v0l0-.032v0l0-.031v0l0-.031v0l0-.031v0l0-.032v0l0-.032v0l0-.032v0l0-.032v0l0-.032v0l0-.031v0l0-.032v0l.005-.031v0l0-.031v0l0-.031v0l.005-.031v0l.005-.031v0l.005-.031v0l.005-.032v0l.005-.032v0l.005-.032v0l.006-.032v0l.006-.031v0l.007-.031v0l.006-.031v0l.006-.031v0l.006-.031v0l.006-.031v0l.007-.031v0l.007-.031v0l.008-.031v0l.008-.031v0l.008-.031v0l.006-.031v0l.008-.031v0l.008-.031v0l.008-.03v0l.007-.031v0l.007-.031v0l.008-.031v0l.008-.031v0l.008-.03v0l.009-.031v0l.009-.031v0l.009-.03v0l.009-.03v0l.009-.031v0l.009-.031v0l.01-.031v0l.01-.03v0l.01-.03v0l.01-.03v0l.008-.03v0l.01-.03v0l.01-.03v0l.01-.03v0l.011-.03v0l.01-.03v0l.011-.03v0l.011-.03v0l.011-.03v0l.01-.03v0l.011-.03v0l.011-.03v0l.011-.03v0l.012-.029v0l.011-.029v0l.011-.03v0l.011-.029v0l.012-.029v0l.012-.029v0l.012-.029v0l.013-.03v0l.012-.029v0l.012-.029v0l.012-.029v0l.013-.029v0l.013-.029v0l.013-.029v0l.012-.029v0l.013-.029v0l.013-.029v0l.014-.029.016-.032.013-.028v0l.014-.029.015-.03v0l.014-.029v0l.014-.029v0l.014-.029v0l.014-.029.016-.032.015-.029.015-.03v0l.015-.028v0l.015-.028.016-.031v0l.015-.028v0l.015-.028v0l.015-.028v0l.015-.027,0,0,.015-.028,0,0,.015-.028v0l.016-.027v0l.016-.027v0L1152.1,24l0,0,.016-.028v0l.016-.028v0l.016-.028v0l.016-.027,0,0,.016-.028v0l.016-.027v0l.016-.027v0l.016-.027,0,0,.017-.027v0l.017-.027v0l.017-.027v0l.017-.027v0l.017-.027v0l.017-.027,0,0,.017-.027v0l.018-.027,0,0,.017-.027,0,0,.017-.027,0,0,.018-.027v0l.02-.029.018-.026v0l.018-.026,0,0,.018-.026,0,0,.018-.026,0,0,.018-.026,0,0,.018-.026v0l.018-.026v0l.018-.026v0l.019-.026,0,0,.019-.026v0l.019-.026,0,0,.02-.025,0,0,.019-.025,0,0,.019-.026v0l.019-.026,0,0,.02-.025,0,0,.019-.025v0l.019-.025,0,0,.02-.026,0,0,.02-.025,0,0,.019-.025,0,0,.02-.025,0,0,.02-.025v0l.02-.025v0l.021-.025,0,0,.02-.024v0l.021-.024,0,0,.02-.025v0l.02-.024,0,0,.02-.025,0,0,.021-.025v0l.021-.024,0,0,.02-.024,0,0,.021-.024,0,0,.021-.023,0,0,.021-.024,0,0,.021-.024,0,0,.022-.024,0,0,.021-.024,0,0,.021-.023,0,0,.021-.023,0,0,.021-.023.173-.173v0l.025-.025.024-.023,0,0,.023-.022,0,0,.024-.022,0,0,.024-.022,0,0,.024-.023,0,0,.024-.023,0,0,.024-.022,0,0,.024-.022,0,0,.024-.022h0l.024-.022h0l.024-.022,0,0,.024-.02,0,0,.025-.022,0,0,.025-.022,0,0,.025-.02,0,0L1154,21.7h0l.025-.022,0,0,.025-.02,0,0,.025-.02,0,0,.025-.02,0,0,.025-.02,0,0,.025-.02,0,0,.025-.02,0,0,.026-.019,0,0,.025-.019,0,0,.025-.02h0l.026-.02,0,0,.026-.02h0l.026-.019,0,0,.026-.019,0,0,.026-.019,0,0,.026-.019h0l.026-.019,0,0,.026-.019,0,0,.026-.019h0l.027-.019,0,0,.026-.019,0,0,.027-.019h0l.027-.018h0l.026-.018,0,0,.027-.018,0,0,.027-.018h0l.027-.018h0l.027-.018h0l.027-.018h0l.027-.017h0l.027-.017,0,0,.027-.018,0,0,.028-.017h0l.028-.017h0l.028-.017,0,0,.028-.017,0,0,.028-.017,0,0,.028-.017h0l.028-.017h0l.027-.016h0L1165.8,14.5h0l.024-.012,0,0,.024-.012h0l.025-.012,0,0,.075-.038,0,0,.025-.012h0l.025-.012h0l.075-.038,0,0,.024-.011h0l.026-.013.025-.011h0l.025-.011,0,0,.025-.011h0l.025-.011h0l.025-.011h0l.025-.011h0l.024-.011h0l.025-.011h0l.025-.011h0l.025-.01h0l.025-.011h0l.025-.011h0l.025-.01h0l.025-.01h0l.025-.01h0l.025-.01h0l.025-.01h0l.025-.009h0l.025-.01h0l.026-.01h0l.025-.009h0l.025-.009h0l.025-.009h0l.025-.009h0l.029-.01.025-.009.032-.011.025-.008.029-.01h0l.026-.008h0L1167,14h0l.025-.008h0l.025-.008h0l.025-.008h0l.026-.008h0l.026-.008h0l.026-.008h0l.026-.008h0l.025-.008h0l.026-.008h0l.025-.006h0l.026-.006h0l.025-.006h0l.025-.006h0l.026-.006h0l.026-.006h0l.026-.006h0l.026-.006h0l.026-.006h0l.026-.005h0l.026-.005h0l.026-.005h0l.026-.005h0l.026-.005h0l.026-.005h0l.026-.005h0l.026-.005h0l.026-.005h0l.026,0h0l.026-.005h0l.026,0h0l.026,0h0l.026,0h0l.026,0h0l.026,0h0l.026,0h0l.026,0h0l.026,0h0l.026,0h0l.026,0h0l.027,0h0l.026,0h0l.026,0h0l.026,0h0l.026,0h0l.026,0h0l.026,0h0l.026,0h0l.026,0h0l.026,0h0l.026,0h0l.027,0h0l.026,0h0l.026,0h0l.026,0h0l.027,0h0l.027,0h.032l.026,0h0l.026,0h.061l.026,0h.353Zm-.024,2.9h-.224l-.223.014-.017,0h-.017l-.017,0-.136.017-.051.01-.035,0-.172.032-.224.056-.017.005-.017,0-.016,0-.017,0-.052.016-.016.005-.034.011-.016.005-.035.011-.016.005-.017.005-.016.005-.016.006-.032.011-.017.006-.016.005-.226.09-.048.023-.016.006-.081.038-.016.009-.032.015-.032.017-.015.008-.032.017-.016.008-.064.034-.015.009-.048.026-.045.026-10.6,6.367-.019.014-.039.026-.019.014-.019.013-.019.014-.019.013-.018.013-.116.084-.018.014-.019.014-.036.028-.018.015-.018.014-.036.03-.018.014-.017.014-.037.03-.018.014-.069.06-.018.016-.018.015-.035.032-.051.045-.069.065-.016.016-.034.032-.016.017-.032.032-.017.016-.016.016-.113.12-.015.017-.016.017-.015.017-.032.034-.075.086-.014.017-.045.052-.014.018-.015.018-.014.018-.014.017-.028.037-.014.017-.015.018-.07.091L1155,24.9l-.028.037-.013.018-.028.037-.013.018-.09.135-.013.018-.026.039-.012.019-.013.019-.024.039-.013.02-.024.039-.012.02-.012.019-.012.02-.024.039-.012.02-.011.02-.011.019-.011.02-.012.019-.011.02-.022.039-.012.022-.01.019-.011.02-.011.022-.021.041-.01.02-.011.02-.029.061-.01.022-.019.041-.01.022-.019.041-.017.041-.019.043-.017.043-.01.02-.052.129-.007.022-.017.043-.007.022-.009.022-.007.022-.009.023-.008.022-.008.023-.015.043-.006.022-.015.043-.006.022-.006.023-.008.023-.007.022-.007.022-.013.045-.006.022-.013.045-.006.022-.005.023-.007.023-.005.023-.013.045-.005.022-.007.023-.038.158-.013.068-.005.024,0,.024-.013.068,0,.024,0,.023,0,.023,0,.024,0,.024,0,.023,0,.023-.006.045-.006.047,0,.023,0,.024,0,.045,0,.024-.006.045,0,.024,0,.024,0,.045,0,.047,0,.023-.009.095,0,.047v.023l0,.024-.006.142v.047l0,13.1v.132l0,.037,0,.019v.019l0,.018v.018l0,.018V41.6l.015.128,0,.019,0,.018.006.037,0,.018,0,.018.006.039,0,.018,0,.018.013.073,0,.019,0,.017,0,.018.021.091,0,.018,0,.017.009.037,0,.017.013.055.005.017,0,.017,0,.018.005.018.005.017.005.018,0,.017.005.017.011.037.011.034.016.055.016.052.011.037.005.017.039.1.013.037.013.034.007.017.006.017.008.017.013.034.023.052.007.017.015.032.007.017.009.016.015.032.008.017.007.016.009.016.009.017.008.016.007.017.008.016.008.016.009.017.034.065.009.017.043.081.019.032.009.015.029.048.01.015.009.016.019.032.01.015.01.016.01.015.01.016.01.015.011.015.01.015.021.03.02.03.011.015.011.016.108.151.011.014.012.015.021.03.012.014.022.03.035.042.011.014.047.056.012.015.036.042.013.014.024.028.052.056.012.014.013.013.026.028.013.013.013.014.039.039.014.013.026.026.014.013.026.026.056.052.014.012.028.026.013.012.014.013.07.059.015.012.014.013.042.035.09.071.014.012.06.043.015.012.016.012.015.011.015.012.03.022.016.011.015.012.048.032.016.01.032.022.015.011.016.01.015.01.016.01.016.011.032.019.017.01.048.029.016.011.018.011,11.41,6.663.012.006.064.032.052.022.013.006.026.011.026.013.013.005.013.006.142.059.026.009.065.027.039.013.014,0,.012,0,.028.01.027.009.027.008.026.009.081.023.108.026.028.005.027.005.056.011.027.005.028,0,.056.011.056.009.054.009.112.013.028,0,.027,0,.028,0,.027,0,.084,0h.027l.056,0h.22l.028,0,.027,0h.028l.027,0,.056,0,.054-.006.056-.006.027,0,.084-.013.027,0,.028,0,.028-.005.054-.011.028-.005.134-.032.027-.008.027-.006.054-.015.026-.009.029-.009.012,0,.014,0,.077-.026.014,0,.013,0,.014-.005.014,0,.026-.009.014,0,.013-.005.013,0,.206-.086.026-.013.013-.005.077-.039.012-.006.077-.039.013-.008.012-.006.014-.008,12.656-7.038.026-.015.036-.023.166-.12.012-.01.024-.017.012-.01.011-.009.012-.01.012-.009.024-.019.012-.009.043-.039.012-.01.021-.019.012-.01.011-.01.021-.022.086-.077.011-.011.021-.019.02-.02.01-.011.032-.032.011-.01.01-.011.011-.011.048-.054.011-.011.029-.032.01-.012.01-.011.009-.011.019-.024.019-.022.009-.012.009-.011.01-.012.009-.012.009-.011.009-.012.01-.012.009-.012.01-.012.01-.011.009-.012.009-.011.009-.012.009-.013.009-.011.017-.024.007-.012.026-.035.015-.024.017-.024.009-.013.008-.012.008-.013.015-.024.008-.013.007-.012.015-.026.03-.047.045-.077.006-.013.03-.052.026-.052.008-.013.006-.014.007-.014.007-.014.019-.039.005-.013.006-.013.011-.026.006-.013.005-.013.007-.013.013-.028.005-.013.007-.014.011-.028.005-.013.011-.028.005-.013.016-.042.005-.013.011-.028,0-.014.005-.014.013-.042.005-.014.039-.126,0-.015,0-.014.009-.028,0-.014,0-.014.009-.03.006-.028,0-.015.006-.028,0-.015,0-.014,0-.015.01-.042,0-.015,0-.015,0-.014,0-.015,0-.014,0-.015.006-.028,0-.014,0-.015,0-.015,0-.014.015-.105v-.015l.006-.045,0-.045,0-.015v-.029l0-.045v-.082l.005-.075v-.047l-.01-14.991-.008-.1,0-.028v-.014l-.009-.056,0-.013v-.013l0-.028,0-.026-.011-.07,0-.012-.005-.028-.005-.026-.005-.027-.019-.081-.006-.026-.006-.027-.019-.077-.008-.027-.03-.1-.009-.025-.017-.052-.048-.124-.011-.026-.032-.074-.011-.024-.011-.025-.012-.025-.011-.025-.023-.049-.012-.024-.013-.025-.065-.118-.014-.024-.042-.068-.014-.024-.015-.023-.014-.023-.015-.023-.014-.023-.015-.023-.015-.022-.016-.023-.015-.022-.081-.108-.017-.02-.034-.043-.016-.02-.017-.02-.017-.022-.035-.041-.036-.041-.037-.039-.058-.058-.039-.037-.021-.019-.039-.037-.041-.037-.041-.034-.023-.018-.01-.009-.086-.069-.011-.008-.011-.009-.011-.008-.01-.009-.032-.026-.011-.008-.024-.017-.021-.015-.011-.009-.012-.008-.011-.008-.011-.009-.022-.015-.012-.008-.021-.015-.012-.008-.012-.006-.036-.023-.011-.006-.035-.023-.012-.006-.012-.008-.013-.008-.012-.006-.013-.009-12.346-7.054-.016-.008-.145-.068-.016-.006-.048-.023-.032-.013-.016-.008-.113-.045-.017-.006-.016-.006-.032-.011-.034-.013-.017-.005-.016-.006-.017-.005-.048-.016-.017-.005-.016-.005-.017-.005-.016-.005-.017-.005-.016,0-.016-.005-.016,0-.034-.009-.017-.005-.017,0-.032-.009-.017-.005-.052-.013-.016,0-.017,0-.016,0-.017,0-.017,0-.017,0-.016,0-.017,0-.017,0-.032-.006-.172-.032-.034,0-.017,0-.155-.019-.016,0h-.017l-.069-.009-.034,0-.017,0-.138-.009h-.206Z" transform="translate(-1023.796 -2.392)" fill="#fcd804" fill-rule="evenodd"/>
    <g id="Groupe_1" data-name="Groupe 1" transform="translate(93.536 20.469)">
      <path id="Tracé_23" data-name="Tracé 23" d="M860,110.426c0,5.074-.962,6.552-2.884,8.665s-4.47,2.964-7.645,2.964a10.577,10.577,0,0,1-7.27-2.821,11.437,11.437,0,0,1,7.5-20.086,11.809,11.809,0,0,1,9.724,5.111l-3.412,2.884c-1.446-2.691-3.542-3.6-6.54-3.684a6.9,6.9,0,0,0-6.694,7.285c.151,2.359,1.253,6.414,6.555,7.158,2.786.39,5.953-2.583,5.953-4.2h-5.234v-4.032H860v.751Z" transform="translate(-838.324 -99.149)" fill="#fff"/>
      <path id="Tracé_24" data-name="Tracé 24" d="M1228.654,99.15A11.453,11.453,0,1,1,1217.2,110.6,11.46,11.46,0,0,1,1228.654,99.15Zm0,4.255a7.2,7.2,0,1,1-7.2,7.2,7.2,7.2,0,0,1,7.2-7.2Z" transform="translate(-1176.459 -99.15)" fill="#fff" fill-rule="evenodd"/>
    </g>
  </g>
</svg>
